<svg xmlns="http://www.w3.org/2000/svg" width="16.99" height="14.301" viewBox="0 0 16.99 14.301">
    <g id="prefix__Group_173" data-name="Group 173" transform="translate(-4050.9 -32.743)">
        <g id="prefix__Group_172" data-name="Group 172">
            <g id="prefix__Group_171" data-name="Group 171">
                <path id="prefix__Path_145" d="M4066.4 34.146a4.861 4.861 0 0 0-6.624 0l-.38.36-.379-.36a4.863 4.863 0 0 0-6.625 0 4.344 4.344 0 0 0 0 6.372l6.6 6.265a.59.59 0 0 0 .811 0l6.6-6.264a4.344 4.344 0 0 0 0-6.372zm-.812 5.518l-6.192 5.879-6.192-5.879a3.168 3.168 0 0 1 0-4.664 3.669 3.669 0 0 1 5 0l.785.746a.59.59 0 0 0 .812 0l.786-.746a3.668 3.668 0 0 1 5 0 3.165 3.165 0 0 1 0 4.664z" data-name="Path 145" style="fill:#91a1a8;stroke:#91a1a8;stroke-miterlimit:10;stroke-width:.2px"/>
            </g>
        </g>
    </g>
</svg>
