<svg xmlns="http://www.w3.org/2000/svg" width="20.408" height="15.826" viewBox="0 0 20.408 15.826">
    <g id="prefix__Group_170" data-name="Group 170" transform="translate(-4087.76 -31.981)">
        <path id="prefix__Path_144" d="M4102.619 33.923c-.428.039-.827.073-1.226.111-.551.052-1.1.11-1.655.157a.25.25 0 0 0-.242.162 1.682 1.682 0 0 1-2.944.275.257.257 0 0 0-.181-.106c-1.033.093-2.064.195-3.1.3a.407.407 0 0 0-.05.023c.028.073.053.15.085.225 1.071 2.475 2.124 4.958 3.227 7.418a2.732 2.732 0 0 1 .14 1.865 4.534 4.534 0 0 1-8.872-.294 2.442 2.442 0 0 1 .165-1.47c1.226-2.783 2.429-5.577 3.631-8.372a.871.871 0 0 1 .8-.6c1.177-.094 2.351-.223 3.527-.326a.511.511 0 0 0 .505-.343 1.558 1.558 0 0 1 1.4-.962 1.6 1.6 0 0 1 1.534.782.3.3 0 0 0 .345.158q1.88-.192 3.762-.365a.668.668 0 0 1 .777.476l3.816 9a1.923 1.923 0 0 1 .02 1.128 4.534 4.534 0 0 1-8.916.069 2.513 2.513 0 0 1 .15-1.554c1.085-2.493 2.134-5 3.195-7.5.04-.08.066-.152.107-.257zm1.01.888l-2.931 6.908h5.863zm-8.431 7.812l-2.925-6.755-2.924 6.755zm11.608.4h-6.355a3.237 3.237 0 0 0 6.355 0zm-11.367.9h-6.339a3.244 3.244 0 0 0 3.254 2.614c1.546-.066 3.07-1.356 3.085-2.614zm2.506-10.679a.437.437 0 0 0-.424.43.431.431 0 1 0 .861-.013.438.438 0 0 0-.437-.417z" data-name="Path 144" style="fill:#91a1a8"/>
    </g>
</svg>
