<?xml version="1.0" encoding="utf-8"?>
<!-- Generator: Adobe Illustrator 19.0.0, SVG Export Plug-In . SVG Version: 6.00 Build 0)  -->
<svg version="1.1" id="Layer_1" xmlns="http://www.w3.org/2000/svg" xmlns:xlink="http://www.w3.org/1999/xlink" x="0px" y="0px"
	 viewBox="0 0 800 426" style="enable-background:new 0 0 800 426;" xml:space="preserve">
<style type="text/css">
	.st0{fill:#E7F5FE;}
	.st1{fill:none;stroke:#D2E8F9;stroke-miterlimit:10;}
	.st2{fill:none;stroke:#D2E8F9;stroke-miterlimit:10;stroke-dasharray:3.9956,3.9956;}
	.st3{fill:#F0FAFF;}
	.st4{fill:#B5DDF7;}
	.st5{fill:none;stroke:#D2E8F9;stroke-linecap:round;stroke-linejoin:round;stroke-miterlimit:10;}
	.st6{fill:#26387A;}
	.st7{fill:#FFB288;}
	.st8{fill:none;stroke:#0061A6;stroke-width:0.5;stroke-miterlimit:10;}
	.st9{fill:#D9F0FF;}
	.st10{fill:none;stroke:#94C1F2;stroke-width:0.5;stroke-miterlimit:10;}
	.st11{fill:none;stroke:#B4E8FD;stroke-width:5;stroke-linecap:round;stroke-linejoin:round;stroke-miterlimit:10;}
	.st12{fill:#FDAE2B;}
	.st13{fill:#EF8417;}
	.st14{opacity:0.5;fill:#FDAE2B;}
	.st15{fill:#FFC840;}
	.st16{fill:#0061A6;}
	.st17{fill:#EF9467;}
	.st18{fill:#E2E8ED;}
	.st19{fill:#B6E9FE;}
	.st20{fill:#2858AD;}
	.st21{fill:none;stroke:#6CB1EF;stroke-width:0.5;stroke-miterlimit:10;}
	.st22{fill:#94C1F2;}
	.st23{font-family:'MyriadPro-Semibold';}
	.st24{font-size:27.8014px;}
</style>
<g>
	<g id="XMLID_168_">
		<path id="XMLID_64_" class="st0" d="M727.9,375.4c-4.5-8.5-22.6-15.4-30.7-16.9c-43.3-8.3-88.8-7.1-132.7-7
			c-47.8,0.2-93.5,7.8-140.9,11.3c-24.7,1.8-50.7-1.5-75.4-2.3c-40.7-1.4-81.4-3.1-122.1-5c-35.1-1.6-71.5,2-102.4,21.4
			c-3.5,2.2-7.1,4.9-8.7,8.8c-10.1,24.8,115.2,21.7,131.6,22.1c82.3,2.1,164.7,3.3,247.1,1c61.2-1.7,125-1.6,185.8-10.2
			c13.4-1.9,31.7-2.6,43.3-10.5C729.1,383.8,730,379.4,727.9,375.4z"/>
	</g>
	<g>
		<g id="XMLID_167_">
			<g id="XMLID_66_">
				<path id="XMLID_69_" class="st1" d="M674.6,37.2c0.7,0,1.3,0,2,0"/>
				<path id="XMLID_68_" class="st2" d="M680.6,37.4c21.9,1.4,51.6,10.4,48.3,30C724.1,96.8,593.2,86,562,86.3
					c-62.9,0.6-126.4,0.9-188,14.6c-15,3.3-36.4,10.7-34.8,29.8c0.6,6.7,4.5,12.7,9.5,17.2c18,16.3,43.1,17.8,66.3,20.7
					c35.2,4.3,202.7-1.4,257.4,16.5c10.8,3.5,24.3,8.1,24.7,23.5c1.1,39.2-96.1,37.2-125.3,38c-77.9,2-155.8,1.2-233.7-0.3
					c-62.9-1.2-126-2.3-188.9-6.4c-23.4-1.5-61.7-2-79.6-19.5c-10-9.8-11.3-27.7,4.5-36.8c11.1-6.4,43.8-3.6,56.3-4.7
					c39.1-3.4,25.8-27.6-6.9-29.5"/>
				<path id="XMLID_67_" class="st1" d="M121.7,149.2c-0.7,0-1.3,0-2,0"/>
			</g>
		</g>
		<g>
			<path id="XMLID_166_" class="st3" d="M676.9,65.8l-10-53c-0.6-3.2-4.4-4.5-6.8-2.4l-40.9,35.2c-2.4,2.1-1.7,6.1,1.3,7.1
				l50.9,17.8C674.4,71.6,677.5,69,676.9,65.8z"/>
			<g>
				<path class="st4" d="M669.2,65c-0.3,0-0.6,0-0.9-0.1l-41.9-14.7c-0.9-0.3-1.5-1.1-1.7-2c-0.2-0.9,0.2-1.9,0.9-2.5l33.6-28.9
					c0.7-0.6,1.7-0.8,2.6-0.5c0.9,0.3,1.5,1.1,1.7,2l8.2,43.6c0.2,0.9-0.2,1.9-0.9,2.5C670.4,64.8,669.8,65,669.2,65z M628.7,47.5
					l39.6,13.8l-7.8-41.2L628.7,47.5z"/>
			</g>
			<path id="XMLID_163_" class="st4" d="M651,47.2L651,47.2c-0.8-0.3-1.2-1.1-1-1.9l4.2-14.6c0.4-1.3,1.8-2.1,3.2-1.6l0,0
				c1.3,0.5,2,1.9,1.5,3.2l-5.8,14C652.6,47.1,651.8,47.5,651,47.2z"/>
			<circle id="XMLID_162_" class="st4" cx="649.8" cy="50.7" r="1.6"/>
		</g>
		<g>
			<path id="XMLID_161_" class="st3" d="M116.5,131.4l-33-16.4c-2-1-4.3,0.5-4.1,2.7l2.3,36.7c0.1,2.2,2.6,3.4,4.4,2.2l30.7-20.3
				C118.7,135.1,118.5,132.3,116.5,131.4z"/>
			<g>
				<path class="st4" d="M112.9,135.2c-0.1,0.2-0.3,0.3-0.4,0.4l-25.2,16.7c-0.5,0.3-1.2,0.4-1.8,0.1c-0.6-0.3-0.9-0.8-1-1.5
					l-1.9-30.2c0-0.6,0.3-1.2,0.8-1.6c0.5-0.4,1.2-0.4,1.8-0.1l27.1,13.5c0.6,0.3,0.9,0.8,1,1.5
					C113.3,134.5,113.2,134.9,112.9,135.2z M86.7,150l23.9-15.8l-25.6-12.8L86.7,150z"/>
			</g>
			<path id="XMLID_158_" class="st4" d="M95.7,137.8L95.7,137.8c-0.5,0.3-1.1,0.2-1.5-0.3l-6.2-8.3c-0.6-0.8-0.4-1.9,0.4-2.4l0,0
				c0.8-0.5,1.9-0.3,2.4,0.5l5.2,8.9C96.3,136.8,96.2,137.5,95.7,137.8z"/>
			<circle id="XMLID_157_" class="st4" cx="97.1" cy="139.8" r="1.1"/>
		</g>
		<g>
			<circle id="XMLID_156_" class="st1" cx="139.4" cy="202.7" r="2.7"/>
			<circle id="XMLID_155_" class="st1" cx="546.8" cy="151.9" r="2.7"/>
			<circle id="XMLID_154_" class="st1" cx="330.6" cy="75" r="2.7"/>
			<circle id="XMLID_153_" class="st1" cx="327.3" cy="283.8" r="2.7"/>
			<g>
				<line id="XMLID_152_" class="st5" x1="391.3" y1="122.1" x2="391.3" y2="128.3"/>
				<line id="XMLID_151_" class="st5" x1="394.4" y1="125.2" x2="388.2" y2="125.2"/>
			</g>
			<g>
				<line id="XMLID_150_" class="st5" x1="502.8" y1="42.8" x2="502.8" y2="49"/>
				<line id="XMLID_149_" class="st5" x1="505.9" y1="45.9" x2="499.7" y2="45.9"/>
			</g>
			<g>
				<line id="XMLID_148_" class="st5" x1="675.2" y1="210.3" x2="675.2" y2="216.5"/>
				<line id="XMLID_147_" class="st5" x1="678.3" y1="213.4" x2="672.1" y2="213.4"/>
			</g>
		</g>
	</g>
	<g>
		<g>
			<g>
				<path id="XMLID_146_" class="st6" d="M447.1,387.8c0,0-11.6,4.9-11.6,7.4c0,1.4,15.9-0.6,16.9-1.6c1.5-1.5-0.6-5.6-0.6-5.6
					L447.1,387.8z"/>
				<path id="XMLID_145_" class="st7" d="M446.3,380.9l0.7,7.1c0,0,0.4,1.1,2,1.3c1.6,0.1,2.7-1.3,2.7-1.3l-0.6-8.9"/>
				<g id="XMLID_144_">
					<path id="XMLID_62_" class="st6" d="M466.5,217.9c4.2,16.9,2.6,25.5-3.5,38.3c-3.7,43-6.3,85.8-11.4,127.7l-5.3,0.3
						c-12.1-40.8-23.2-101.8-21.7-157.5"/>
				</g>
				<g>
					<path id="XMLID_143_" class="st8" d="M463.9,223.8c1.5,3.9,1.9,8.4,1.8,12.5c-0.2,6.4-2.8,12.2-4.5,18.3
						c-2.3,8.1-2.4,16.2-3,24.6c-1,13-2,26.1-2.9,39.1c-1.6,21.3-3.3,42.5-4.9,63.8c0,0.6-0.1,1.3-0.1,1.9"/>
				</g>
			</g>
			<g>
				<path id="XMLID_142_" class="st6" d="M493.1,389.5c0,0-11.6,4.9-11.6,7.4c0,1.4,15.9-0.6,16.9-1.6c1.5-1.5-0.6-5.6-0.6-5.6
					L493.1,389.5z"/>
				<path id="XMLID_141_" class="st7" d="M492.4,382.6l0.7,7.1c0,0,0.4,1.1,2,1.3c1.6,0.1,2.7-1.3,2.7-1.3l-0.6-8.9"/>
				<g id="XMLID_140_">
					<path id="XMLID_60_" class="st6" d="M504.9,216.5c5.3,16.6,4.3,25.3-1,38.5c-0.9,43.1-3.8,88.1-6.1,130.3h-5.5
						c-14.7-39.9-30.5-101.5-32.8-157.2"/>
				</g>
				<g>
					<path id="XMLID_139_" class="st8" d="M502.3,223.4c0,0,6.2,14.4-4.3,34.7c-1.2,19.1-1.8,127.2-1.8,127.2"/>
					<path id="XMLID_138_" class="st8" d="M487.1,228c1.1,1.6,2.7,2.8,4.5,3.5c1.8,0.7,3.7,1,5.6,1.3c2.3,0.3,4.6,0.5,6.9,0.4"/>
					<path id="XMLID_137_" class="st8" d="M487.8,230.7c2,1.8,4.5,2.9,7.1,3.5c2.6,0.6,5.2,0.7,7.9,0.7"/>
				</g>
			</g>
		</g>
		<g>
			<g id="XMLID_136_">
				<path id="XMLID_58_" class="st7" d="M441.8,136.2c-18.4,32-38.2,61-49.9,95.9l-3.5-1.9c0.9-32.5,11.4-79.7,25.2-109.1"/>
			</g>
			<g id="XMLID_135_">
				<path id="XMLID_56_" class="st9" d="M432.9,102.8c0,0-5.7,1.6-12.4,6c-6.3,4.2-11.1,10.4-14.3,17.2c-3.2,6.8-5,14.3-6.2,21.7
					c0,0,7.7,3.8,16.5,4.9c8.8,1.1,18.2,0,18.2,0"/>
			</g>
		</g>
		<g>
			<g id="XMLID_134_">
				<path id="XMLID_54_" class="st9" d="M419.2,121.7c-2,34.6-0.5,70.2,0.4,103.8c0,0,12.1,3.2,41.4,3.2c29.2,0,48.3-8.9,48.3-8.9
					c-5.7-34.6-10.2-77-24-105.5c0,0-15.6-16.9-31.1-17.6c-3.1-0.1-6.2,1-9.2,2.4c-2.2,1-12.2,3.5-12.2,3.5L419.2,121.7z"/>
			</g>
			<path id="XMLID_133_" class="st10" d="M419,124.7c-0.8,6.7-0.8,27.2-0.8,27.2"/>
		</g>
		<g>
			<path id="XMLID_132_" class="st11" d="M448.1,236.4c49-5.4,69.5,56.6,80.7,80.7c26.4,56.9,125.8,50.6,171.1,50.6
				c59.4,0,85.4,20,57.7,30.5"/>
			<path id="XMLID_131_" class="st12" d="M465,239.2c0,25.2-19.1,40.4-35.4,40.4h-26.7v-80.8h26.7C446,198.8,465,214,465,239.2z"/>
			<path id="XMLID_130_" class="st13" d="M451.2,239.2c0,24.6-14.6,44.6-32.6,44.6h-29.5v-89.1h29.5
				C436.7,194.6,451.2,214.6,451.2,239.2z"/>
			<path id="XMLID_129_" class="st14" d="M457.8,214.8c-6.4,8.7-12.6,17.5-18.6,26.4c0.9-0.2,1.7-0.6,2.3-1.2c0,0.7-1.1,1.8-0.1,2.3
				c0.9,0.4,1.9-0.7,2.9-0.4c0.9-0.2,1.8-1.4,2.5-2c-0.3,0.7-0.4,1.2-0.4,1.6c6.5-2.5,12.3-8.6,17.4-13.5
				C462.4,223,460.4,218.6,457.8,214.8z"/>
			<ellipse id="XMLID_128_" class="st15" cx="391.3" cy="239.2" rx="32.6" ry="44.6"/>
			<g>
				<g>
					<ellipse id="XMLID_127_" class="st13" cx="388.4" cy="255" rx="5.6" ry="6.6"/>
				</g>
				<g>
					<ellipse id="XMLID_126_" class="st13" cx="388.4" cy="223.4" rx="5.6" ry="6.6"/>
				</g>
			</g>
		</g>
		<g>
			<g id="XMLID_125_">
				<path id="XMLID_52_" class="st7" d="M494.2,147.2c0,0,2.1,21.1-7.3,38.6c-8,15-24,34.3-37,45l-3.1-0.8
					c4.5-17.3,18.7-47.9,19.6-59.4c0.9-11.5,0.7-24.8,0.9-31.2"/>
			</g>
			<path id="XMLID_124_" class="st9" d="M454.2,96.8c0,0,17.3,1.2,27.4,9.7c14.4,12.1,16.5,35.9,16.5,41.4
				c-4.3,4.7-13.8,4.9-20.7,4.9s-12-3.3-12-3.3l-1.4-26.2"/>
			<g id="XMLID_123_">
				<path id="XMLID_26_" class="st7" d="M448,227.5c-2,0.2-3.9,1.2-5.5,2.4c-1.5,1.2-3.4,3.2-3.2,4.1c0.2,1,2.7-0.9,3-0.5
					c0.3,0.4-4.3,7.3-3.4,7.8c0.9,0.5,4.7-5.7,4.7-5.7s-3.8,6.7-2.3,6.8c1.2,0.1,4.6-6.2,4.6-6.2s-2.8,5.6-1.9,5.9
					c1,0.2,3.6-5.4,3.6-5.4s-2.1,4.8-1.3,4.9c0.4,0,2.5-2.3,3.4-5.2c0.9-2.8,1.9-5.3,1.1-7.5"/>
			</g>
			<line id="XMLID_122_" class="st10" x1="466.1" y1="126" x2="466.1" y2="149.8"/>
		</g>
		<g>
			<g id="XMLID_121_">
				<path id="XMLID_22_" class="st6" d="M418.3,74.8c-0.1,1-0.1,2.1-0.1,3.1c0,2.2,0.3,4.6,1.6,6.4c0.9,1.3,2.2,2.2,3.7,2.6
					c1.1,0.3,2.4,0.2,2.9-0.8c0.2-0.4,0.2-0.8,0.2-1.1c0-3.8-0.8-7.7-2.2-11.3"/>
			</g>
			<g id="XMLID_120_">
				<path id="XMLID_46_" class="st7" d="M444.4,76.9c-1.5-5.8-6.2-13.9-13.8-12.3c-4.8,1-9.2,4.3-10.6,8.8c-1.7,5.4,1,11.8,4.3,16.2
					c1.2,1.6,2.6,3.2,4.5,4.2c4.4,2.3,10.3,0.4,13.3-3.4C445.2,86.7,445.6,81.5,444.4,76.9z"/>
			</g>
			<path id="XMLID_119_" class="st7" d="M433.8,92.1l2.5,9.1l-3.4,1.6c0,0,2.6,3.4,7.7,2.7c10.4-1.5,13.6-8.7,13.6-8.7l-5.9-0.6
				l-6.5-11.1"/>
			<g id="XMLID_118_">
				<path id="XMLID_21_" class="st6" d="M449.5,70.6c-0.7-4-3.6-7.4-7-9.5c-6.1-3.7-14.9-4-20.4,1.1c-3.1,2.9-8.7,13.3-2,15.4
					c2.1,0.6,4.2-0.6,6.1-1.8c1.9-1.2,3.7-2.5,5.6-3.7c0.7-0.4,1.4-0.9,2.2-0.9c1.3-0.1,2.4,1.1,2.9,2.3c0.5,1.2,0.5,2.6,0.8,3.8
					c0.2,0.9,0.6,1.8,1.4,2.3c0.8,0.5,2,0.4,2.4-0.5c0.3-0.6,0.1-1.3,0.1-1.9c0-0.6,0.3-1.4,1-1.4c0.2,0,0.4,0.1,0.6,0.3
					c1.6,1.3,1.1,3.8,1.6,5.8c0.1,0.3-0.5,4.3-0.3,4.5C449.5,85.1,450,73.5,449.5,70.6z"/>
			</g>
			<g id="XMLID_117_">
				<path id="XMLID_42_" class="st7" d="M441.9,76.3c-0.1-0.7,0.6-1.4,1.3-1.5c0.7-0.1,1.5,0.3,2,0.8c1,0.8,1.7,2,1.7,3.3
					c0,1-0.4,1.9-0.9,2.8c-0.4,0.6-0.8,1.1-1.5,1.3c-0.8,0.3-1.7-0.1-2.3-0.7"/>
			</g>
		</g>
	</g>
	<g>
		<g>
			<g>
				<path id="XMLID_116_" class="st6" d="M257.7,387.6c0,0,11.1,1.9,11.5,4.3c0.2,1.4-15.6,3.1-16.7,2.2c-1.7-1.3,0.4-6.3,0.4-6.3
					L257.7,387.6z"/>
				<path id="XMLID_115_" class="st7" d="M256.9,380.7l0.9,7c0,0-0.2,1.2-1.8,1.5c-1.6,0.3-2.8-0.9-2.8-0.9l-1.3-8.8"/>
				<g id="XMLID_114_">
					<path id="XMLID_40_" class="st6" d="M215.2,220.1c-2,17.3-2.1,25.7,5.6,37.6c3.7,16.8,9.3,34,13.6,51.1
						c-1.8,20.5,11,53.2,17.9,76.5l5-0.9c6.7-42,9.2-106.4,3.2-162.8"/>
				</g>
				<path id="XMLID_113_" class="st8" d="M218.4,243.6c0,0,19.2,60.9,19.2,64.2c0,3.3,0.5,14.7,1.4,22c1.6,13.5,13.8,53.3,13.8,53.3
					"/>
				<polygon id="XMLID_112_" class="st16" points="252.2,386.3 251.4,383.2 257.9,383 257.9,385.8 				"/>
			</g>
			<g>
				<path id="XMLID_111_" class="st6" d="M171,387.9c0,0,8.7,6.3,8,8.5c-0.4,1.3-14.6-4-15.2-5.1c-0.9-1.9,3-5.2,3-5.2L171,387.9z"
					/>
				<path id="XMLID_110_" class="st7" d="M173.2,381.7l-2.2,6.4c0,0-0.7,0.9-2.2,0.5c-1.5-0.4-2-2-2-2l2.6-8.1"/>
				<g id="XMLID_109_">
					<path id="XMLID_38_" class="st6" d="M177.7,216.5c-5.3,16.6-4.3,25.3,1,38.5c0.3,15.7,0.5,31.7,0.7,47.6
						c-11.2,28.1-13,53.3-11.6,80l5.4,2c0,0,32.2-56.2,38.1-78.4c6.8-25.5,10.7-52.7,11.7-78.2"/>
				</g>
				<path id="XMLID_108_" class="st8" d="M179,220.1c0,0-5.9,17.2,1.8,33.7c0,4.6,2.6,43,1.6,48.9c-0.5,2.8-5.8,16.4-9.3,29.6
					c-3.9,14.6-4.7,49-4.7,49"/>
				<polygon id="XMLID_107_" class="st16" points="166.7,382.6 167.6,379 174.5,382.2 173.2,385.3 				"/>
			</g>
		</g>
		<g>
			<path id="XMLID_106_" class="st17" d="M267.8,88.1l-4.3-3.7c0,0,0-6.5,0-7.7s-1.6-8.3-3.1-8.3c-1.5,0-1.8-1.8-2.5-1.1
				c-0.7,0.7,0.6,8.8,0,9.4c-0.6,0.6-1.4-3.8-1.9-3.3c-0.6,0.6-0.6,3.8-0.6,5.5c0,1.7,1.3,4.7,2.6,6c1.3,1.3,7.1,7.6,7.1,7.6
				L267.8,88.1z"/>
			<g id="XMLID_105_">
				<path id="XMLID_36_" class="st9" d="M265.6,85.6l-3.6,4.1c0,0,14.3,19,18.9,25.3c-4.1-1.5-10.1-5.1-13.5-7.3
					c-6.7-4.4-13.5-6.8-18.2-6.8c-9.9,0-4.7,32.7,6.8,37.5c21.8,3.3,46.3,1.2,50.1-6.5C311.6,120.7,279.6,93.8,265.6,85.6z"/>
			</g>
			<path id="XMLID_104_" class="st10" d="M280.9,115.1c0,0,2.7,7.6,7.6,10.1"/>
		</g>
		<g>
			<g id="XMLID_103_">
				<path id="XMLID_34_" class="st9" d="M199,109.7c-26,29.3-25.7,79.5-25.7,113.7c0,0,19.1,13.1,48.3,13.1
					c29.3,0,41.4-7.2,41.4-7.2c0.9-34.6-5.3-49.6,0.4-106.9c0,0-9.3-21.4-14.3-21.4c-5,0-24.4-1.9-24.4-1.9L199,109.7z"/>
			</g>
			<path id="XMLID_102_" class="st10" d="M262,139.3c0,0,0.6-10,3-12.4"/>
		</g>
		<g id="XMLID_101_">
			<path id="XMLID_32_" class="st7" d="M233.4,77.2c1-5.9,5.2-14.3,12.9-13.4c4.8,0.6,8.6,3.9,11.3,7.9c2.3,3.4,1.4,6.6-1.9,15.1
				c-1.1,1.7-3.3,4.8-5.1,6c-4.2,2.7-10.3,1.3-13.6-2.2C233.8,87,232.6,81.8,233.4,77.2z"/>
		</g>
		<g id="XMLID_100_">
			<path id="XMLID_20_" class="st6" d="M234.4,76.4c1.1-0.2,0-0.9,0.5,0.1c0.3,0.6,0.4,0.8,1,1c0.6,0.2,0.6,0.8,1.1,1.2
				c0.8,0.6,1.5-0.2,1.8-0.9c0.6-1.3,0.6-2.8,0.5-4.2c-0.1-1.1-0.5-2.8,0.6-3.6c0.9-0.6,2.8,0.3,3.7,0.5c1.4,0.4,2.8,0.8,4.1,1.3
				c3.3,1,6.8,1.9,10.3,1.4c3.1-0.4,6.2-2,7.7-4.8c1.8-3.4-1.8-7.8-5.3-7.8c-0.9,0-1.8,0.4-2.7,0.6c-0.3,0.1-0.7,0.1-1,0
				c-0.8-0.2-1.1-1.1-1.6-1.8c-1.3-2.1-3.6-2.7-5.9-2.4c-2.6,0.3-4.9,1.6-7.4,2.2c-1.3,0.4-2.5,0-3.8,0.1c-1.4,0-2.8,0.9-3.4,2.2
				c-1.1-1.1-3.5,1.6-4.1,2.4c-2.6,3.2-3.5,7.8-3.5,11.9c-0.1,3.6,0.5,8.7,4.4,10.1c1.6,0.6,2.7,0.9,2.8-0.6c-0.7-1.6-0.9-4.7-1-6
				c-0.1-1.3,0.2-2.9,1.4-3.4"/>
		</g>
		<path id="XMLID_99_" class="st7" d="M247.1,91.3l-0.8,8.9l2.9,0.8c0,0-1.6,4-6.7,4.7c-10.4,1.4-17.7-6.6-17.7-6.6l3.5-0.7
			l5.3-16.6"/>
		<g id="XMLID_98_">
			<path id="XMLID_49_" class="st7" d="M236.2,76.4c0.1-0.7-0.7-1.4-1.4-1.4c-0.7,0-1.4,0.4-1.9,0.9c-2.9,2.9,0.7,10,3.6,6.3"/>
		</g>
		<g id="XMLID_97_">
			<path id="XMLID_18_" class="st6" d="M255.8,86.6c-0.5,1.1-2.3,1.5-3.3,1.6c-4.9,0.5-8.9-2.6-13.6-3.2c-0.9-0.1-2-0.2-2.7,0.4
				c-0.7,0.6-0.7,1.6-0.7,2.5c0,1.1,0,2.2,0.1,3.3c0.1,0.9,0.3,1.9,0.8,2.7c2.1,3.5,9.2,4.1,12.7,3.9c1.4-0.1,2.9-0.4,4.1-1.2
				c1.6-1.2,2-3.3,2.6-5.2C256.3,89.1,255.8,86.6,255.8,86.6z"/>
		</g>
		<g id="XMLID_96_">
			<path id="XMLID_63_" class="st7" d="M252.3,90.4c-0.2-0.1-0.3-0.2-0.5-0.2c-2.3,0-3.5-0.5-5.3-0.7c-0.3,0-0.6,0-0.9,0
				c-0.6,0.2-1,0.9-1.1,1.5c-0.1,0.6,0.2,1.1,0.8,1.4c1.1,0.5,2.3,0.7,3.4,0.7c1,0,2.4,0.1,3.2-0.6C252.3,92.3,253,90.9,252.3,90.4z
				"/>
		</g>
		<g>
			<path id="XMLID_95_" class="st11" d="M230.8,219.5c-56.9-3-90,26.4-113.6,79.9c-30.5,69.4-73.2,75-92.4,74.6"/>
			<path id="XMLID_94_" class="st12" d="M209,224.2c2.1,25.1,22.4,38.7,38.6,37.3l26.6-2.2l-6.7-80.5l-26.6,2.2
				C224.6,182.3,206.9,199.1,209,224.2z"/>
			<path id="XMLID_93_" class="st13" d="M222.7,223c2,24.5,18.2,43.2,36.1,41.7l29.4-2.5l-7.4-88.8l-29.4,2.5
				C233.5,177.4,220.6,198.5,222.7,223z"/>
			
				<ellipse id="XMLID_92_" transform="matrix(-0.9965 8.312135e-002 -8.312135e-002 -0.9965 581.9681 411.8566)" class="st15" cx="282.4" cy="218" rx="32.6" ry="44.6"/>
			<g>
				<g>
					
						<ellipse id="XMLID_91_" transform="matrix(-0.9965 8.313130e-002 -8.313130e-002 -0.9965 591.5705 442.4562)" class="st12" cx="286.6" cy="233.5" rx="5.6" ry="6.6"/>
				</g>
				<g>
					
						<ellipse id="XMLID_90_" transform="matrix(-0.9965 8.311658e-002 -8.311658e-002 -0.9965 583.7089 379.8323)" class="st12" cx="283.9" cy="202.1" rx="5.6" ry="6.6"/>
				</g>
			</g>
			<g>
				<path id="XMLID_89_" class="st18" d="M284.9,206.7c3.3-0.3,41.5-3.5,41.5-3.5c2.5-0.2,4.4-2.5,4.2-5l0,0c-0.2-2.6-2.4-4.5-5-4.3
					c0,0-38.4,3.2-41.5,3.5C280.9,197.7,281.5,206.9,284.9,206.7z"/>
				<path id="XMLID_88_" class="st18" d="M287.5,238.1c3.3-0.3,41.5-3.5,41.5-3.5c2.5-0.2,4.4-2.5,4.2-5l0,0c-0.2-2.6-2.4-4.5-5-4.3
					c0,0-38.4,3.2-41.5,3.5S284.2,238.4,287.5,238.1z"/>
			</g>
		</g>
		<g>
			<g id="XMLID_87_">
				<path id="XMLID_172_" class="st7" d="M185.1,147.2c0,0-2.1,21.1,7.3,38.6c8,15,24,34.3,37,45l3.1-0.8
					c-4.5-17.3-18.7-47.9-19.6-59.4c-0.9-11.5-0.7-24.8-0.9-31.2"/>
			</g>
			<path id="XMLID_86_" class="st9" d="M224.8,99.1c0,0-18.3,1.1-28.8,9c-18.2,13.7-14.6,50.5-9.3,68.5c5.3,18,30.7,45,38.9,50.8
				c1.3,0,5.3-0.3,5.2-3.4c-4.5-14-17.5-51-17.5-51l2-49.8"/>
			<g id="XMLID_85_">
				<path id="XMLID_43_" class="st7" d="M231.3,227.5c2,0.2,3.9,1.2,5.5,2.4c1.5,1.2,3.4,3.2,3.2,4.1c-0.2,1-2.7-0.9-3-0.5
					c-0.3,0.4,4.3,7.3,3.4,7.8c-0.9,0.5-4.7-5.7-4.7-5.7s3.8,6.7,2.3,6.8c-1.2,0.1-4.6-6.2-4.6-6.2s2.8,5.6,1.9,5.9
					c-1,0.2-3.6-5.4-3.6-5.4s2.1,4.8,1.3,4.9c-0.4,0-2.5-2.3-3.4-5.2c-0.9-2.8-1.9-5.3-1.1-7.5"/>
			</g>
			<path id="XMLID_84_" class="st10" d="M218.4,187.7c-2.9-8.4-5.1-14.7-5.1-14.7l3.8-41.8"/>
			<path id="XMLID_83_" class="st10" d="M182.6,141.4c-0.1,11.3,1.3,25.3,4.2,35.2c2.5,8.7,9.8,19.4,17.5,28.9"/>
		</g>
	</g>
	<g>
		<path id="XMLID_82_" class="st7" d="M573,79.8l2.9-2c0,0,1.4-6.4,2.1-7.5c0.8-1.2,2.3-3.7,4-4.9c0.7-0.5,4-2.3,4.8-1.5
			c0.4,0.4-1,4.1-1.6,4.7c-0.6,0.6-2.5,3.5-2.2,4.4c0.3,0.9,1.8-1.1,2.2-1.4c0.4-0.4,0.9-0.8,1-0.3c0.3,0.8-1.4,5.2-2.7,6.5
			c-1.3,1.3-3.4,2.5-4.8,2.5l-4.6,4"/>
		<g id="XMLID_81_">
			<path id="XMLID_47_" class="st6" d="M608.4,58.8c4.9,2.9,7.9,8.2,9,13.6c0.2,1,0.4,2,1.1,2.7c0.5,0.6,1.3,0.9,2,1.2
				c4,1.9,7.1,5.5,8.5,9.7c0.6,1.8,0.1,4.3,0.8,5.8c0.9,1.9,4,2.3,5.7,2.9c5.1,1.7,8.9,6.8,8.9,12.2c0.1,5.4-3.6,10.6-8.7,12.4
				c1.4,1.9,1.6,4.5,0.9,6.7c-0.6,2.3-2,4.2-3.6,6c-6.4,7.3-16.3,11.2-26,10.7c-2.8-0.1-5.6-0.6-8.2-1.6c-2.9-1.2-5.5-3.1-8-5.1
				c-3-2.4-6-5-7.6-8.5c-1.6-3.5-1.5-8,1.2-10.7c-3.1,0.7-6.5-1.1-8.3-3.7c-1.8-2.7-2.1-6.1-1.4-9.3s2.4-6,4.3-8.5
				c1.3-1.8,2.9-3.6,3.2-5.9c0.5-3.7-1.6-7.1-2.1-10.8c-0.8-5.8-0.6-10.7,4.4-13.8c1.6-4.1,3.5-7.3,8.1-8.5
				C598.2,55,603.5,55.9,608.4,58.8z"/>
		</g>
		<path id="XMLID_80_" class="st19" d="M596.5,102.7c-16.5-4.3-35.4,2.5-39.6,2.5c5.8-5.8,16.3-18.6,20-23c0-3-1.8-3.9-1.8-3.9
			s-45.2,23.4-40.7,38.7c4.7,15.9,49.1,8.1,52.6,12.7"/>
		<g>
			<path id="XMLID_79_" class="st7" d="M599.7,251.1c0,1.4-6,30.4-6.4,33.5c-1.3,9.1,3.5,18.2,3.1,32.3c-0.6,17.1-7.8,63.1-8.8,65.1
				c-0.9,2-5.4,0.2-5.4,0.2s-12.8-61.7-13.5-86.9c-0.6-20.8,2.4-65.8,2.4-65.8"/>
			<path id="XMLID_78_" class="st6" d="M588.1,382.8c0,0,0.7,1.6,0.7,2.3c-0.1,1.9-0.2,3.2-0.2,3.2l-0.8,0.1l-0.3-1.6
				c0,0-2.2,0.4-4.5,1.9c-1.1,0.7-6.6,0.7-7.4,0.2c-0.9-0.5-0.7-1.4-0.4-1.8c0.3-0.4,6.2-3,6.2-3"/>
			<path id="XMLID_77_" class="st7" d="M582.3,382.2c-0.5,1.2-5.2,3.7-4.7,4.1c0.4,0.3,3.2,0.4,6.2-0.6c2.8-0.9,4.3-1.9,4.4-2.7
				l-0.5-1.9"/>
		</g>
		<g>
			<path id="XMLID_76_" class="st7" d="M640.8,252.4c0,1.4-5,30.6-5.4,33.7c-1,9.1,4.1,18.1,4,32.1c0,17.1-5.9,63.3-6.8,65.4
				c-0.9,2.1-5.4,0.3-5.4,0.3s-14.7-61.3-16.2-86.5c-1.2-20.8,0.4-65.8,0.4-65.8"/>
			<path id="XMLID_75_" class="st6" d="M633.1,384.3c0,0,0.8,1.5,0.8,2.2c0,1.9-0.1,3.2-0.1,3.2l-0.8,0.1l-0.3-1.6
				c0,0-2.2,0.5-4.4,2c-1.1,0.8-6.5,0.9-7.4,0.4c-1-0.5-0.7-1.4-0.4-1.8c0.3-0.4,6.2-3.1,6.2-3.1"/>
			<path id="XMLID_74_" class="st7" d="M627.3,383.9c-0.4,1.2-5,3.9-4.6,4.2c0.4,0.3,3.2,0.3,6.2-0.8c2.7-1,4.3-2.1,4.3-2.8
				l-0.6-1.9"/>
		</g>
		<path id="XMLID_73_" class="st20" d="M625.8,177.7c0,0,13.1,8.6,18.1,29.2c6.7,27.8-3.2,82.2-3.2,82.2s-20.5,6-42.9,5.8
			c-22.3-0.2-35.6-7.7-35.6-9.1c0-1.4-3.3-42.5,1.2-70.5c5.1-31.4,18.1-39.8,18.1-39.8"/>
		<g>
			<g>
				<path id="XMLID_72_" class="st19" d="M608.1,102.2c2-0.8,7.3,1.1,17.2,4.9c4.3,4.7,6.2,15,7.2,24.1c-2.6,22.1-5.4,34.2-4,41.7
					c0.3,1.8,1.9,3.1,1.7,5.6c-0.5,5.1-8.9,5.9-24.8,7.7c-15.9,1.8-30.2-5.4-29.3-7.7c0.9-2.3,3.6-4.2,4-5.7
					c0.4-1.5,1.7-20.5,0-22.7c-1.7-2.3-6.1-8.7-6.1-15c0-8.9,4.9-12.9,8.1-17.7c5.3-8.1,9.4-13.2,14.5-14.5
					C604.7,100.6,608.1,102.2,608.1,102.2z"/>
			</g>
			<path id="XMLID_71_" class="st21" d="M581.4,113.4c0,0,0.6,3.8-1.4,7c-0.6,1-4.2,4.7-4.9,7"/>
		</g>
		<g id="XMLID_70_">
			<path id="XMLID_176_" class="st7" d="M604.3,91.3c4.3-4.3,5-12.5,3-18c-2.2-6.2-11.1-10.9-17.2-7
				C578.2,74,590.3,105.2,604.3,91.3z"/>
		</g>
		<path id="XMLID_59_" class="st7" d="M596,90.6l0.2,13.3c0,0-0.5,3,4.7,3.1c7.1,0.3,7.1-4.9,7.1-4.9L604,88.5"/>
		<g id="XMLID_41_">
			<path id="XMLID_171_" class="st6" d="M601.4,60.5c-1.5-1-3-1-4.5-0.1c-0.9,0.6-1.6,1.5-2.6,1.9c-0.7,0.3-1.5,0.4-2.3,0.6
				c-3.5,0.9-6.7,3.6-8.2,6.9c-1.5,3.3-1,8.7,1.7,11.1c-0.1-2.6,0.6-6.2,2-8.4c0.7-1.1,1.8-2.3,3.2-2.1c1.5,0.2,2.3,1.8,3.4,2.8
				c1.6,1.6,4,1.9,6.2,2.2c2.4,0.4,4.3,0.8,5.5,3.2c0.5,1,0.8,2.2,1.1,3.3c0.3,1.3,0.7,2.7,0.7,4.1c0,0.9,0,1.7,0.3,2.6
				c0.5,1.6,2.2,2.6,3.8,3.2c1.3,0.4,3.4,0.8,4.2-0.6c0.7-1.2,1.2-2.9,1.5-4.2c0.8-4.5-0.7-9.1-3.1-12.9c-2.6-4.2-6.4-7-9.8-10.5
				C603.6,62.4,602.5,61.2,601.4,60.5z"/>
		</g>
		<g id="XMLID_29_">
			<path id="XMLID_177_" class="st7" d="M604.8,81c0.3-1,1-2,2.1-2.2c3.4-0.5,2.9,4.5,1.6,6.3c-0.8,1-2.7,2.4-3.6-0.5"/>
		</g>
		<g>
			<path id="XMLID_5_" class="st7" d="M640.7,184.4l-1.6,3.4c0,0-6,1.4-6.6,2.5c-1,1.7-2.5,4-2.5,5.3c0,1.3,0.1,7.1,1.8,7.1
				c1,0,3.5-4.7,4-5.4c1.2-1.6,5.9-2.7,5.9-6.8l2.9-6.1"/>
			<path id="XMLID_4_" class="st19" d="M608.1,102c0,0,14-3.6,25,3.3c8.5,5.4,30.4,32.1,30.4,47.4c0,10.3-20.5,35.9-20.5,35.9
				l-3.4-2.4c0,0,2-20.1,7.9-31.2c-4.4-4.4-21.5-18-25.8-22.3"/>
			<path id="XMLID_3_" class="st21" d="M619.5,131.3c3.1,2.7,11.1,9.2,11.1,9.2"/>
		</g>
	</g>
	<g>
		<g id="XMLID_2_">
			<path id="XMLID_175_" class="st0" d="M206.1,78.3l-16.9-13.6c0,0,7.6-28.1-2.5-38c-5.4-5.2-12.1-8.8-19.2-11.5
				c-15.6-5.9-34.2-7.3-48.1,2C109.2,24,103,35.7,100.2,47.6c-2.5,10.5-2.2,22.5,4.3,31.1c3,3.9,7,6.8,11.3,9
				c13.4,7,48.8,9.7,64.2-0.6c4.3-2.9,3.9-6.7,5.7-12.7L206.1,78.3z"/>
		</g>
		<text id="XMLID_1_" transform="matrix(1 0 0 1 111.5863 62.3359)" class="st22 st23 st24">Oops!</text>
	</g>
</g>
</svg>
