<svg height="16pt" viewBox="0 -113 512 512" width="16pt" xmlns="http://www.w3.org/2000/svg"><path d="m477.933594 140.273438v-100.195313h-57.613282v15.03125h42.582032v35.066406h-75.144532v-35.066406h17.535157v-15.03125h-107.710938v-30.058594h-32.5625v15.03125h17.53125v35.066407h-75.144531v-35.066407h42.582031v-15.03125h-57.613281v100.195313h-20.039062v60.117187h-80.367188v15.03125h147.945312l54.105469-30.058593h136.839844v-15.03125h-43.101563v-35.066407h75.144532v35.066407h-17.015625v15.03125h47.714843l-39.816406 84.949218c-.035156.070313-.074218.144532-.109375.214844h-323.921875v15.03125h313.175782c-9.683594 9.441406-22.847657 15.027344-36.777344 15.027344h-240.46875v15.03125h240.46875c26.117187 0 50.15625-15.28125 61.238281-38.929688l44.609375-95.160156v-11.195312zm-195.382813 4.207031-46.53125 25.851562h-48.652343v-45.085937h95.183593zm0-34.265625h-75.144531v-35.066406h75.144531zm90.175781 30.058594h-75.144531v-35.066407h75.144531zm0-50.097657h-75.144531v-35.066406h75.144531zm0 0"/><path d="m17.882812 185.363281h59.058594v-15.03125h-76.941406v10.992188l42.542969 104.234375h108.109375v-15.03125h-98.007813zm0 0"/><path d="m69.636719 240.46875h15.027343v15.03125h-15.027343zm0 0"/><path d="m99.695312 240.46875h15.027344v15.03125h-15.027344zm0 0"/><path d="m115.226562 118.730469h15.027344v33.066406h-15.027344zm0 0"/><path d="m40.078125 75.148438h75.148437v28.554687h15.027344v-43.585937h-45.085937v-15.027344h17.53125v-15.03125h-17.53125v-15.027344h17.53125v-15.03125h-50.097657v15.03125h17.535157v15.027344h-17.535157v15.03125h17.535157v15.027344h-45.085938v91.679687h15.027344zm0 0"/><path d="m451.882812 192.875c0-12.429688-10.113281-22.542969-22.542968-22.542969-12.429688 0-22.546875 10.113281-22.546875 22.542969 0 12.433594 10.117187 22.546875 22.546875 22.546875 12.429687 0 22.542968-10.113281 22.542968-22.546875zm-30.058593 0c0-4.140625 3.371093-7.511719 7.515625-7.511719 4.144531 0 7.511718 3.371094 7.511718 7.511719 0 4.144531-3.367187 7.515625-7.511718 7.515625-4.144532 0-7.515625-3.371094-7.515625-7.515625zm0 0"/><path d="m372.226562 185.363281h-50.097656v-15.03125h50.097656zm-65.125 0h-15.03125v-15.03125h15.03125zm0 0"/><path d="m100.195312 105.207031h-15.027343v-15.03125h15.027343zm-30.058593 0h-15.027344v-15.03125h15.027344zm0 0"/><path d="m100.195312 135.265625h-15.027343v-15.03125h15.027343zm-30.058593 0h-15.027344v-15.03125h15.027344zm0 0"/></svg>