<svg xmlns="http://www.w3.org/2000/svg" width="29.709" height="31.62" viewBox="0 0 29.709 31.62">
    <defs>
        <style>
            .prefix__cls-1{fill:#fff}
        </style>
    </defs>
    <g id="prefix__Group_3240" data-name="Group 3240" transform="translate(-745.63 -552.688)">
        <path id="prefix__Shape" d="M749.7 575.343a.531.531 0 0 1-.006-1.061h.006a.531.531 0 0 1 0 1.061z" class="prefix__cls-1"/>
        <path id="prefix__Shape-2" d="M747.487 561.5a1.857 1.857 0 0 0-1.857 1.857v4.836a3.176 3.176 0 0 0 .454 1.636l2.062 3.438a.53.53 0 1 0 .909-.546l-2.061-3.435a2.115 2.115 0 0 1-.3-1.093v-4.836a.8.8 0 0 1 1.592 0v4.472a2.124 2.124 0 0 0 .477 1.344l.637.775 3.779 4.619a.531.531 0 1 0 .821-.672l-3.438-4.2.6-.486a1.065 1.065 0 0 1 1.448.114l4.27 4.659a1.587 1.587 0 0 1 .419 1.077v2.888h-5.835v-.767a1.6 1.6 0 0 0-.227-.819.531.531 0 1 0-.91.546.545.545 0 0 1 .076.273v.865a1.59 1.59 0 0 0-1.061 1.494v3.183a1.591 1.591 0 0 0 1.591 1.591h6.9a1.591 1.591 0 0 0 1.591-1.591v-3.183a1.59 1.59 0 0 0-1.061-1.494v-2.986a2.656 2.656 0 0 0-.7-1.793L753.4 568.6a2.132 2.132 0 0 0-2.894-.225l-.614.493-.3-.372a1.056 1.056 0 0 1-.239-.676v-4.472a1.858 1.858 0 0 0-1.857-1.857zm10.875 21.221a.53.53 0 0 1-.53.53h-6.9a.53.53 0 0 1-.53-.53v-3.183a.531.531 0 0 1 .53-.531h6.9a.531.531 0 0 1 .53.531z" class="prefix__cls-1" data-name="Shape"/>
        <path id="prefix__Shape-3" d="M755.71 579.534a1.591 1.591 0 1 0 1.591 1.591 1.591 1.591 0 0 0-1.591-1.591zm0 2.122a.531.531 0 1 1 .53-.531.531.531 0 0 1-.53.531z" class="prefix__cls-1" data-name="Shape"/>
        <path id="prefix__Shape-4" d="M770.64 576.9l4.244-7.075a3.194 3.194 0 0 0 .455-1.638v-4.836a1.857 1.857 0 1 0-3.714 0v4.472a1.058 1.058 0 0 1-.24.671l-.3.372-.615-.494a2.131 2.131 0 0 0-2.892.226l-4.27 4.66a2.648 2.648 0 0 0-.7 1.794v2.986a1.593 1.593 0 0 0-1.061 1.494v3.183a1.591 1.591 0 0 0 1.592 1.591h6.9a1.591 1.591 0 0 0 1.591-1.591v-3.183a1.591 1.591 0 0 0-1.061-1.494v-.865a.528.528 0 0 1 .076-.273zm-6.555-2.923l4.271-4.66a1.065 1.065 0 0 1 1.446-.114l.606.486-3.438 4.2a.531.531 0 1 0 .822.671l3.777-4.615.64-.777a2.13 2.13 0 0 0 .477-1.344v-4.472a.8.8 0 0 1 1.592 0v4.836a2.118 2.118 0 0 1-.3 1.091l-4.244 7.076a1.588 1.588 0 0 0-.228.819v.767h-5.836v-2.888a1.59 1.59 0 0 1 .418-1.075zm6.479 8.738a.53.53 0 0 1-.53.53h-6.9a.53.53 0 0 1-.531-.53v-3.183a.531.531 0 0 1 .531-.531h6.9a.531.531 0 0 1 .53.531z" class="prefix__cls-1" data-name="Shape"/>
        <path id="prefix__Shape-5" d="M765.259 579.534a1.591 1.591 0 1 0 1.591 1.591 1.591 1.591 0 0 0-1.591-1.591zm0 2.122a.531.531 0 1 1 .53-.531.531.531 0 0 1-.53.531z" class="prefix__cls-1" data-name="Shape"/>
        <g id="prefix__Group_3239" data-name="Group 3239">
            <path id="prefix__Path_1935" d="M763.7 556.52h-.5a2.832 2.832 0 1 1-2.832-2.832 2.837 2.837 0 0 1 2.832 2.832h1a3.832 3.832 0 1 0-3.832 3.832 3.833 3.833 0 0 0 3.832-3.832z" class="prefix__cls-1" data-name="Path 1935"/>
            <path id="prefix__Path_1936" d="M766.278 566.988l.209.454a1.827 1.827 0 0 0 1.068-1.65l-.019-.262a7.133 7.133 0 0 0-14.1 0l-.02.262a1.83 1.83 0 0 0 1.068 1.65l2.246 1.038a8.947 8.947 0 0 0 7.514 0l2.246-1.038-.209-.454-.21-.453-2.246 1.038a7.955 7.955 0 0 1-6.675 0l-2.246-1.038a.833.833 0 0 1-.488-.743l.008-.112a6.133 6.133 0 0 1 12.126 0l.008.113a.833.833 0 0 1-.487.743z" class="prefix__cls-1" data-name="Path 1936"/>
        </g>
    </g>
</svg>
