<?xml version="1.0" encoding="utf-8"?>
<!-- Generator: Adobe Illustrator 19.0.0, SVG Export Plug-In . SVG Version: 6.00 Build 0)  -->
<svg version="1.1" id="Layer_1" xmlns="http://www.w3.org/2000/svg" xmlns:xlink="http://www.w3.org/1999/xlink" x="0px" y="0px"
	 viewBox="-467 267.9 25.1 26.8" style="enable-background:new -467 267.9 25.1 26.8;" xml:space="preserve">
<style type="text/css">
	.st0{fill:#85979E;}
</style>
<title>Messages</title>
<path class="st0" d="M-465.1,291.7l0.9,0.7c0.4,0.2,0.7,0.2,1.1,0.1c0.2-0.1,0.3-0.1,0.5-0.3l10.1-13.8l0.6,0.4
	c0.2,0.1,0.3,0.1,0.5,0l1.1-0.7l0.5,0.3l-0.4,1.3c-0.1,0.2,0,0.4,0.2,0.4l1.3,0.9c0.5,0.3,1.3,0.3,1.6-0.3l2.3-3.1
	c0.2-0.2,0.3-0.5,0.2-0.8c0-0.3-0.2-0.6-0.4-0.7l-1.3-0.9c-0.2-0.1-0.3-0.1-0.5,0.1l-1.2,0.9l-0.4-0.2l0.4-1.6
	c0.1-0.2,0-0.4-0.2-0.4l-5.8-4c-0.2-0.2-3.1-2.3-7.4,0.3c-0.1,0-0.2,0.2-0.2,0.4c0,0.3,0.2,0.4,0.4,0.4c0,0,3.8,0,5.4,2.1l-0.7,2.2
	c-0.1,0.2,0,0.4,0.2,0.4l0.9,0.7l-10.2,13.7c-0.2,0.2-0.3,0.5-0.2,0.8C-465.5,291.4-465.4,291.6-465.1,291.7z M-453.5,277.7l0.4,0.2
	l-8.6,11.7l-1.5-1.1l9-12l0,0c0.2-0.2,0.1-0.4-0.1-0.6l-1.1-0.7l0.5-2.2c0.1-0.2,0-0.3,0-0.4c-1.2-1.6-3.3-2.3-4.8-2.5l0,0
	c3.1-1.3,5,0.3,5.2,0.4l0,0l5.5,3.9l-0.4,1.6c-0.1,0.2,0,0.4,0.2,0.4l0.8,0.6c0.2,0.1,0.3,0.1,0.5-0.1l1.2-0.9l1.1,0.7
	c0,0.1,0.2,0.1,0.1,0.2c0,0.1-0.1,0.2-0.1,0.2l-2.3,3.1c-0.1,0.2-0.3,0.1-0.5,0.1l-1.1-0.7l0.4-1.3c0.1-0.2,0-0.4-0.2-0.4l-0.9-0.7
	c-0.2-0.1-0.3-0.1-0.5,0.1l-1.1,0.7l-1.3-1l0,0c-0.2-0.2-0.4-0.1-0.6,0.1C-453.8,277.3-453.7,277.5-453.5,277.7z M-464.8,291.1
	c0-0.1-0.2-0.1-0.1-0.2c0-0.1,0.1-0.2,0.1-0.2l1-1.3l1.5,1.1l-1,1.3c-0.1,0.2-0.3,0.1-0.5,0.1L-464.8,291.1L-464.8,291.1z"/>
<g>
	<path class="st0" d="M-450.7,293.9c-0.4,0-0.8,0-1.3-0.1c-1.4-0.3-2.7-1.2-3.4-2.4c-0.1-0.2-0.2-0.4-0.3-0.6
		c-0.1-0.2,0-0.4,0.1-0.4s0.4,0,0.4,0.1c0,0,0,0,0,0c0.1,0.2,0.2,0.3,0.3,0.5c1.4,2.3,4.4,3,6.7,1.5s3-4.4,1.5-6.7s-4.4-3-6.7-1.5
		l-1.6,1c-0.2,0.1-0.4,0-0.5-0.1c-0.1-0.2,0-0.4,0.1-0.5l1.6-1c2.6-1.6,6-0.8,7.6,1.8c1.6,2.6,0.8,6-1.8,7.6
		C-448.7,293.6-449.7,293.9-450.7,293.9L-450.7,293.9z"/>
	<path class="st0" d="M-455.8,289.8c-0.2,0-0.3-0.1-0.3-0.3c0-0.2-0.1-0.3-0.1-0.5c0-0.2,0.1-0.3,0.3-0.4s0.3,0.1,0.4,0.3
		c0,0,0,0,0,0c0,0.2,0,0.3,0.1,0.5C-455.4,289.6-455.5,289.7-455.8,289.8C-455.7,289.8-455.8,289.8-455.8,289.8z M-455,285.3
		c-0.2,0-0.3-0.2-0.3-0.3c0,0,0-0.1,0-0.1l0.9-2.4c0.1-0.2,0.3-0.3,0.4-0.2s0.3,0.3,0.2,0.4l-0.9,2.4
		C-454.8,285.3-454.9,285.3-455,285.3z"/>
	<path class="st0" d="M-452.5,285.6C-452.5,285.6-452.5,285.6-452.5,285.6l-2.6-0.3c-0.2,0-0.3-0.2-0.3-0.4c0-0.2,0.2-0.3,0.4-0.3
		c0,0,0,0,0,0l2.5,0.3c0.2,0,0.3,0.2,0.3,0.4C-452.2,285.5-452.3,285.6-452.5,285.6L-452.5,285.6z"/>
	<path class="st0" d="M-453.1,291.1c-0.2,0-0.3-0.1-0.3-0.3c0-0.1,0-0.2,0.1-0.2l2.3-2.3V286c0-0.2,0.1-0.3,0.3-0.3
		c0.2,0,0.3,0.1,0.3,0.3v2.4c0,0.1,0,0.2-0.1,0.2l-2.4,2.4C-452.9,291.1-453,291.1-453.1,291.1z"/>
</g>
</svg>
