<?xml version="1.0" encoding="utf-8"?>
<!-- Generator: Adobe Illustrator 19.0.0, SVG Export Plug-In . SVG Version: 6.00 Build 0)  -->
<svg version="1.1" id="Layer_1" xmlns="http://www.w3.org/2000/svg" xmlns:xlink="http://www.w3.org/1999/xlink" x="0px" y="0px"
	 viewBox="-467 269 24 24" style="enable-background:new -467 269 24 24;" xml:space="preserve">
<style type="text/css">
	.st0{fill:#85979E;}
</style>
<title>Messages</title>
<path class="st0" d="M-463.4,291.9l0.9,0.7c0.4,0.2,0.7,0.2,1.1,0.1c0.2-0.1,0.3-0.1,0.5-0.3l10.1-13.8l0.6,0.4
	c0.2,0.1,0.3,0.1,0.5,0l1.1-0.7l0.5,0.3l-0.4,1.3c-0.1,0.2,0,0.4,0.2,0.4l1.3,0.9c0.5,0.3,1.3,0.3,1.6-0.3l2.3-3.1
	c0.2-0.2,0.3-0.5,0.2-0.8c0-0.3-0.2-0.6-0.4-0.7l-1.3-0.9c-0.2-0.1-0.3-0.1-0.5,0.1l-1.2,0.9l-0.4-0.2l0.4-1.6
	c0.1-0.2,0-0.4-0.2-0.4l-5.8-4c-0.2-0.2-3.1-2.3-7.4,0.3c-0.1,0-0.2,0.2-0.2,0.4c0,0.3,0.2,0.4,0.4,0.4c0,0,3.8,0,5.4,2.1l-0.7,2.2
	c-0.1,0.2,0,0.4,0.2,0.4l0.9,0.7l-10.2,13.7c-0.2,0.2-0.3,0.5-0.2,0.8C-463.8,291.6-463.7,291.8-463.4,291.9z M-451.8,277.9l0.4,0.2
	l-8.6,11.7l-1.5-1.1l9-12l0,0c0.2-0.2,0.1-0.4-0.1-0.6l-1.1-0.7l0.5-2.2c0.1-0.2,0-0.3,0-0.4c-1.2-1.6-3.3-2.3-4.8-2.5l0,0
	c3.1-1.3,5,0.3,5.2,0.4l0,0l5.5,3.9l-0.4,1.6c-0.1,0.2,0,0.4,0.2,0.4l0.8,0.6c0.2,0.1,0.3,0.1,0.5-0.1l1.2-0.9l1.1,0.7
	c0,0.1,0.2,0.1,0.1,0.2c0,0.1-0.1,0.2-0.1,0.2l-2.3,3.1c-0.1,0.2-0.3,0.1-0.5,0.1l-1.1-0.7l0.4-1.3c0.1-0.2,0-0.4-0.2-0.4l-0.9-0.7
	c-0.2-0.1-0.3-0.1-0.5,0.1l-1.1,0.7l-1.3-1l0,0c-0.2-0.2-0.4-0.1-0.6,0.1C-452.1,277.5-452,277.7-451.8,277.9z M-463.1,291.3
	c0-0.1-0.2-0.1-0.1-0.2c0-0.1,0.1-0.2,0.1-0.2l1-1.3l1.5,1.1l-1,1.3c-0.1,0.2-0.3,0.1-0.5,0.1L-463.1,291.3L-463.1,291.3z"/>
</svg>
