<svg xmlns="http://www.w3.org/2000/svg" width="32.09" height="32.089" viewBox="0 0 32.09 32.089">
    <defs>
        <style>
            .prefix__cls-1{fill:#84969d}
        </style>
    </defs>
    <g id="prefix__Group_3339" data-name="Group 3339" transform="translate(-1667.922 -303.723)">
        <g id="prefix__Group_3338" data-name="Group 3338">
            <path id="prefix__Path_2007" d="M1698.979 315.95l-11.193-11.194a3.53 3.53 0 0 0-4.99 0l-5.067 5.067-3.341-3.341a3.476 3.476 0 1 0-4.916 4.916l.746.749a.535.535 0 0 0 .754 0 .534.534 0 0 0 0-.754l-.746-.748a2.409 2.409 0 1 1 3.406-3.409l6.937 6.937-3.406 3.409-4.65-4.65a.533.533 0 0 0-.91.378.525.525 0 0 0 .156.376l1.054 1.053-3.422 3.422a3.531 3.531 0 0 0 0 4.989l2.181 2.183a.764.764 0 0 1 .224.6.773.773 0 0 1-.31.566l-1.834 1.351a4.279 4.279 0 0 0-1.711 3.831 4.572 4.572 0 0 0 4.108 4.108c.13.012.266.018.4.018a4.289 4.289 0 0 0 3.435-1.729l1.348-1.833a.773.773 0 0 1 .566-.311.765.765 0 0 1 .6.225l2.183 2.179a3.521 3.521 0 0 0 4.989 0l2.045-2.045a9.257 9.257 0 0 0 6.543 1.451 2.43 2.43 0 0 0 1.826-3.438l-.008-.017a2.89 2.89 0 0 0-.183-.319l-2.018-2.947c-.12-.175-.243-.35-.366-.524l1.988-1.988a.532.532 0 0 0 0-.753.547.547 0 0 0-.754 0l-1.865 1.865a48.017 48.017 0 0 0-4.644-5.4l-9.655-9.655 5.067-5.068a2.467 2.467 0 0 1 3.482 0l11.193 11.194a2.465 2.465 0 0 1 0 3.482l-2.044 2.044a.531.531 0 0 0 0 .754.549.549 0 0 0 .756 0l2.042-2.045a3.527 3.527 0 0 0 0-4.988zm-14.159 17.64a2.46 2.46 0 0 1-3.482 0l-2.182-2.18a1.84 1.84 0 0 0-2.783.208l-1.351 1.831a3.2 3.2 0 0 1-2.871 1.283 3.5 3.5 0 0 1-3.148-3.147 3.209 3.209 0 0 1 1.283-2.872l1.831-1.351a1.842 1.842 0 0 0 .211-2.782l-2.183-2.184a2.464 2.464 0 0 1 0-3.481l3.422-3.422 2.879 2.882a2.656 2.656 0 0 0 .339 3.346l9.428 9.425c.169.172.354.342.548.506zm10.333-2.238a1.3 1.3 0 0 1-.112.537 1.346 1.346 0 0 1-1.041.8 8.21 8.21 0 0 1-7.033-2.3l-9.429-9.425a1.6 1.6 0 0 1-.31-1.812l9.978 9.977a7.491 7.491 0 0 0 5.529 2.345 10.5 10.5 0 0 0 2.407-.3zm-7.769-10.364a47.035 47.035 0 0 1 5.516 6.643l1.755 2.566a7.778 7.778 0 0 1-3.962-.1 6.691 6.691 0 0 1-2.733-1.72l-10.043-10.044 3.409-3.409z" class="prefix__cls-1" data-name="Path 2007"/>
            <path id="prefix__Path_2008" d="M1673.888 329.847a2.117 2.117 0 1 0 .618 1.494 2.1 2.1 0 0 0-.618-1.494zm-.754 2.236a1.048 1.048 0 0 1-1.481-1.482 1.048 1.048 0 0 1 1.788.74 1.054 1.054 0 0 1-.307.742z" class="prefix__cls-1" data-name="Path 2008"/>
            <path id="prefix__Path_2009" d="M1673.011 307.857a1.531 1.531 0 0 0-2.164 0 1.533 1.533 0 0 0 0 2.167 1.531 1.531 0 0 0 2.164 0 1.527 1.527 0 0 0 0-2.167zm-.753 1.413a.478.478 0 0 1-.658 0 .464.464 0 1 1 .658 0z" class="prefix__cls-1" data-name="Path 2009"/>
        </g>
    </g>
</svg>
