<svg xmlns="http://www.w3.org/2000/svg" width="29.825" height="31.957" viewBox="0 0 29.825 31.957">
    <defs>
        <style>
            .prefix__cls-1{fill:#84969d}
        </style>
    </defs>
    <g id="prefix__Group_3335" data-name="Group 3335" transform="translate(-1510.91 -303.789)">
        <g id="prefix__Group_3334" data-name="Group 3334">
            <path id="prefix__Path_1996" d="M1537.54 326.159h-.834a3.782 3.782 0 0 0-1.686.4 2.713 2.713 0 0 1-2.418 0 3.728 3.728 0 0 0-.958-.32l1.038-8.067h1.129a.532.532 0 0 0 .533-.533v-2.13a.533.533 0 0 0-.533-.533h-2.13v-1.6a.531.531 0 0 0-.156-.376l-2.507-2.507v-1.654l.808-.645 1.378 2.757.954-.475-1.482-2.963.659-.528h1.944a.532.532 0 0 0 .532-.533v-2.13a.533.533 0 0 0-.532-.533h-5.326a4.8 4.8 0 0 0-4.793 4.794.532.532 0 0 0 .532.532h1.065v1.378l-1.441 1.442a.53.53 0 0 0-.156.377v2.662h-1.066v-4.261l-.038-.191-.034-.061-.044-.08-2.014-2.517v-3.542a.533.533 0 0 0-.532-.533h-3.2a.533.533 0 0 0-.533.533v3.542l-2.014 2.517-.045.08-.032.061-.039.191v4.261h-2.131a.533.533 0 0 0-.532.533v2.13a.532.532 0 0 0 .532.533h1.13l2.07 16.046a.534.534 0 0 0 .528.465h12.538a3.187 3.187 0 0 0 2.375 1.065h.834a3.776 3.776 0 0 0 1.685-.4 2.72 2.72 0 0 1 2.418 0 3.782 3.782 0 0 0 1.686.4h.834a3.2 3.2 0 0 0 3.195-3.2v-3.195a3.2 3.2 0 0 0-3.191-3.192zm-5.859-21.3h1.065v1.065h-1.065zm1.6 11.184v1.066h-7.456v-1.066zm-9.016-7.989a3.734 3.734 0 0 1 3.69-3.195h2.663v1.341l-2.317 1.853zm3.69 1.065v1.066h-2.13v-1.066zm-3.728 3.416l1.286-1.285h2.754l2.351 2.351v1.377h-6.391zm-.533 3.508h1.065v3.729a.534.534 0 0 0 .3.479l3.195 1.6a.644.644 0 0 1 .328.379.686.686 0 0 1-.053.532.622.622 0 0 1-.835.279l-2.162-1.081a.534.534 0 0 0-.713.245l-.054.233v5.326a1.065 1.065 0 0 1-1.065 1.065v-4.794h-1.065v4.794h-1.065v-4.794h-1.07v4.794h-1.064v-4.794h-1.066v4.794a1.065 1.065 0 0 1-1.065-1.065v-11.725zm-6.924-11.184h2.131v2.663h-2.131zm-.276 3.728h2.684l1.278 1.6h-5.241zm-1.854 2.663h6.391v3.728h-6.391zm-2.663 5.859v-1.066h4.261v1.066zm14.913 12.25v3.195a3.2 3.2 0 0 0 .186 1.065h-11.435l-1.993-15.445h2.59v9.587a2.129 2.129 0 0 0 2.13 2.13h5.326a2.13 2.13 0 0 0 2.131-2.13v-4.465l1.391.7a1.7 1.7 0 0 0 2.273-.771v-.01a1.72 1.72 0 0 0 .1-1.318 1.7 1.7 0 0 0-.863-1l-2.9-1.452v-1.275h5.785l-1.031 7.989h-.494a3.2 3.2 0 0 0-3.198 3.196zm12.782 3.195a2.131 2.131 0 0 1-2.13 2.131h-.834a2.728 2.728 0 0 1-1.209-.286 3.785 3.785 0 0 0-3.371 0 2.727 2.727 0 0 1-1.209.286h-.834a2.131 2.131 0 0 1-2.13-2.131v-.82a3.176 3.176 0 0 0 2.13.82h.834a3.776 3.776 0 0 0 1.685-.4 2.719 2.719 0 0 1 2.418 0 3.782 3.782 0 0 0 1.686.4h.834a3.176 3.176 0 0 0 2.13-.82zm-2.13-1.065h-.834a2.7 2.7 0 0 1-1.209-.286 3.791 3.791 0 0 0-3.371 0 2.7 2.7 0 0 1-1.209.286h-.834a2.13 2.13 0 0 1 0-4.261h.834a2.714 2.714 0 0 1 1.209.286 3.792 3.792 0 0 0 3.371 0 2.714 2.714 0 0 1 1.209-.286h.834a2.13 2.13 0 0 1 0 4.261z" class="prefix__cls-1" data-name="Path 1996"/>
            <path id="prefix__Rectangle_1415" d="M0 0H1.065V1.065H0z" class="prefix__cls-1" data-name="Rectangle 1415" transform="translate(1537.007 328.289)"/>
            <path id="prefix__Rectangle_1416" d="M0 0H1.065V1.065H0z" class="prefix__cls-1" data-name="Rectangle 1416" transform="translate(1531.681 328.289)"/>
            <path id="prefix__Rectangle_1417" d="M0 0H1.065V1.064H0z" class="prefix__cls-1" data-name="Rectangle 1417" transform="translate(1529.551 328.822)"/>
            <path id="prefix__Rectangle_1418" d="M0 0H1.065V1.064H0z" class="prefix__cls-1" data-name="Rectangle 1418" transform="translate(1534.877 328.822)"/>
        </g>
    </g>
</svg>
