<svg xmlns="http://www.w3.org/2000/svg" width="25.585" height="32.026" viewBox="0 0 25.585 32.026">
    <defs>
        <style>
            .prefix__cls-1{fill:#84969d}
        </style>
    </defs>
    <g id="prefix__Group_3341" data-name="Group 3341" transform="translate(-1513.03 -398.827)">
        <g id="prefix__Group_3340" data-name="Group 3340">
            <path id="prefix__Path_2010" d="M1524.585 410.724l-2.746-1.763.018-.068a7.308 7.308 0 0 0-.313-4.2c-.333-1.068-.4-1.446.04-1.853l.062-.07.032-.047.029-.052.02-.055.016-.054.008-.055.005-.058v-2.775a.879.879 0 0 0-.9-.852H1517a.878.878 0 0 0-.9.852v2.83l.01.052.013.055.018.049.023.047.1.125c.448.415.378.793.044 1.858a7.339 7.339 0 0 0-.313 4.2l.018.068-2.746 1.763-.052.039-.042.042-.041.047-.042.062-.026.058-.021.06-.013.06-.005.073v19.156a.532.532 0 0 0 .529.532h10.74a.532.532 0 0 0 .529-.532v-19.145a.524.524 0 0 0-.238-.449zm-7.419-10.836h3.526v2.034h-3.526zm6.6 29.9h-9.676v-2.527h9.676zm0-6.06h-2.682a.531.531 0 0 0 0 1.063h2.682v1.409h-9.676v-11.665h9.676zm0-10.258h-9.676v-1.77h3.938a.532.532 0 1 0 0-1.063h-2.657l1.549-1a.531.531 0 0 0 .222-.6 6.107 6.107 0 0 1 .185-4.027 4.038 4.038 0 0 0 .284-1.914l-.024-.114h2.682l-.024.114a4.032 4.032 0 0 0 .284 1.914 6.108 6.108 0 0 1 .185 4.027.534.534 0 0 0 .222.6l2.83 1.817z" class="prefix__cls-1" data-name="Path 2010"/>
            <path id="prefix__Path_2011" d="M1520.384 411.173a.539.539 0 1 1-.545-.532h.016a.531.531 0 0 1 .529.532z" class="prefix__cls-1" data-name="Path 2011"/>
            <path id="prefix__Path_2012" d="M1538.471 419.508a.542.542 0 0 0-.387-.167h-10.64a.532.532 0 0 0-.53.564l.629 10.447a.536.536 0 0 0 .532.5h9.378a.535.535 0 0 0 .532-.5l.629-10.447a.55.55 0 0 0-.143-.397zm-1.519 10.28h-8.379l-.224-3.75.109.005c.608.032 1.3.047 2.019.05h.073l.506 1.883a.531.531 0 0 0 .649.376l3.725-1a.534.534 0 0 0 .323-.247.551.551 0 0 0 .052-.4l-.222-.829.115-.01c.459-.042.926-.089 1.385-.144l.117-.016zm-2.847-4.866c-.884.055-1.782.089-2.663.1h-.076l-.143-.535 2.7-.723.3 1.145zm.321 1.043l.08-.005.136.506-2.7.723-.3-1.107h.126c.889-.017 1.781-.057 2.658-.117zm2.84-1.338l-.081.011c-.589.073-1.2.136-1.8.188l-.08.007-.5-1.851a.531.531 0 0 0-.65-.376l-3.724 1a.543.543 0 0 0-.321.247.535.535 0 0 0-.055.4l.209.775h-.128c-.634-.008-1.244-.026-1.766-.052l-.089-.005-.273-4.567h9.509z" class="prefix__cls-1" data-name="Path 2012"/>
            <path id="prefix__Path_2013" d="M1519.811 424.26a.541.541 0 1 1-.548-.532h.015a.535.535 0 0 1 .533.532z" class="prefix__cls-1" data-name="Path 2013"/>
        </g>
    </g>
</svg>
