<svg xmlns="http://www.w3.org/2000/svg" viewBox="0 0 24 24"><defs><style>.cls-1{fill:#85979e;}.cls-2{fill:none;}</style></defs><title>Dashboard</title><g id="Layer_2" data-name="Layer 2"><g id="Layer_1-2" data-name="Layer 1"><path class="cls-1" d="M22.67,6.38h0L20.8,3.21a1.39,1.39,0,0,0-1.2-.68H4.76a1.4,1.4,0,0,0-1.14.59L1.38,6.33a1.4,1.4,0,0,0-.25.79V8a2.21,2.21,0,0,0,1.54,2.09V21a.44.44,0,0,0,.44.46H20.86a.46.46,0,0,0,.47-.46V10.09A2.2,2.2,0,0,0,22.87,8v-.9A1.49,1.49,0,0,0,22.67,6.38ZM14.14,20.54H9.86V14.23h4.28Zm6.26,0H15.06V13.77a.48.48,0,0,0-.48-.47H9.39a.45.45,0,0,0-.45.47h0v6.77H3.6V10.17a2.18,2.18,0,0,0,1.24-.59A2.78,2.78,0,0,0,8.55,10.9a2.92,2.92,0,0,0,1.12-1,2.79,2.79,0,0,0,3.87.77,2.87,2.87,0,0,0,.79-.8,2.8,2.8,0,0,0,4.85-.31,2.21,2.21,0,0,0,1.22.58ZM21.94,8a1.26,1.26,0,0,1-2.5.27l0-.31a.47.47,0,0,0-.51-.42.49.49,0,0,0-.42.46,2.85,2.85,0,0,0,0,.41h0a1.86,1.86,0,0,1-3.71,0,.47.47,0,0,0-.46-.47h0a.47.47,0,0,0-.47.47,1.86,1.86,0,0,1-3.71,0v0a.47.47,0,0,0-.93,0,1.86,1.86,0,0,1-3.71,0V8.27a2.46,2.46,0,0,0,0-.28.47.47,0,0,0-.47-.46A.46.46,0,0,0,4.59,8l0,.22A1.26,1.26,0,0,1,2.06,8V7.12a.43.43,0,0,1,.09-.26L4.38,3.65a.47.47,0,0,1,.38-.19H19.6a.45.45,0,0,1,.4.22l1.87,3.17a.4.4,0,0,1,.07.24Z"/><path class="cls-1" d="M7.59,13.49H4.66A.46.46,0,0,0,4.2,14v2.74a.46.46,0,0,0,.46.46H7.59a.45.45,0,0,0,.46-.46V14A.45.45,0,0,0,7.59,13.49Zm-.47,2.74h-2V14.41h2Z"/><path class="cls-1" d="M19.29,13.49H16.36a.46.46,0,0,0-.46.46v2.74a.46.46,0,0,0,.46.46h2.93a.45.45,0,0,0,.46-.46V14A.45.45,0,0,0,19.29,13.49Zm-.46,2.74h-2V14.41h2Z"/><rect class="cls-2" width="24" height="24"/></g></g></svg>