<svg xmlns="http://www.w3.org/2000/svg" width="31.841" height="31.76" viewBox="0 0 31.841 31.76">
    <defs>
        <style>
            .prefix__cls-1{fill:#fff}
        </style>
    </defs>
    <g id="prefix__Group_3236" data-name="Group 3236" transform="translate(-899.263 -552.512)">
        <path id="prefix__Path_1932" d="M914.987 562.37a4.507 4.507 0 0 0-1.171 1.217.511.511 0 0 0 .855.558 3.471 3.471 0 0 1 .906-.942.51.51 0 0 0-.59-.833z" class="prefix__cls-1" data-name="Path 1932"/>
        <path id="prefix__Path_1933" d="M905.746 583.251h-3.741v-22.4a6.937 6.937 0 1 1 13.864-.463 4.5 4.5 0 0 0-3.971 4.464v.8a.51.51 0 0 0 .51.51h2.271a1.863 1.863 0 0 0 3.618 0h2.084a.51.51 0 0 0 .511-.51v-.8a4.5 4.5 0 0 0-4-4.468 7.957 7.957 0 1 0-15.907.422v22.445h-1.212a.51.51 0 0 0 0 1.021h5.973a.51.51 0 0 0 0-1.021zm10.744-16.692a.845.845 0 0 1-.7-.4h1.408a.845.845 0 0 1-.708.4zm3.383-1.707v.287h-6.952v-.287a3.476 3.476 0 1 1 6.952 0z" class="prefix__cls-1" data-name="Path 1933"/>
        <path id="prefix__Path_1934" d="M928.694 575.367v-2.376a2.15 2.15 0 0 0-2.164-2.131h-7.338a2.143 2.143 0 0 0-1.53.632c-.042.042-.082.086-.12.131a2.175 2.175 0 0 0-1.658-.763h-7.39a2.151 2.151 0 0 0-2.165 2.131v2.386a2.467 2.467 0 0 0-2.249 2.437v5.948a.51.51 0 0 0 .51.51h3.956a.51.51 0 0 0 .51-.51v-.68l17.072.007v.673a.51.51 0 0 0 .51.51h3.956a.51.51 0 0 0 .51-.51v-5.948a2.47 2.47 0 0 0-2.41-2.447zm-10.309-3.155a1.128 1.128 0 0 1 .807-.332h7.338a1.129 1.129 0 0 1 1.144 1.111v2.557a2.452 2.452 0 0 0-1.546 2.266v.2h-8.077v-4.969a1.154 1.154 0 0 1 .332-.83zm-9.891-.332h7.39a1.129 1.129 0 0 1 1.144 1.111v5.02h-7.974v-.194a2.456 2.456 0 0 0-1.706-2.324v-2.5a1.13 1.13 0 0 1 1.144-1.111zm-.458 11.371H905.1v-5.437a1.469 1.469 0 0 1 2.936 0zm1.02-1.19v-3.033h17.07v3.034zm21.028 1.19h-2.936v-5.437a1.469 1.469 0 0 1 2.936 0z" class="prefix__cls-1" data-name="Path 1934"/>
    </g>
</svg>
