<svg xmlns="http://www.w3.org/2000/svg" width="29.709" height="31.833" viewBox="0 0 29.709 31.833">
    <defs>
        <style>
            .prefix__cls-1{fill:#fff}
        </style>
    </defs>
    <g id="prefix__Group_3238" data-name="Group 3238" transform="translate(-1209.727 -552.475)">
        <g id="prefix__Page-1">
            <g id="prefix___018---Embrace-Eco" data-name="018---Embrace-Eco">
                <g id="prefix__Group_3237" data-name="Group 3237">
                    <path id="prefix__Shape" d="M1213.8 575.343a.531.531 0 0 1-.006-1.061h.006a.531.531 0 0 1 0 1.061z" class="prefix__cls-1"/>
                    <path id="prefix__Shape-2" d="M1211.584 561.5a1.857 1.857 0 0 0-1.857 1.857v4.836a3.176 3.176 0 0 0 .454 1.636l2.062 3.438a.53.53 0 1 0 .909-.546l-2.061-3.435a2.116 2.116 0 0 1-.3-1.093v-4.836a.8.8 0 1 1 1.592 0v4.472a2.124 2.124 0 0 0 .477 1.344l.637.775 3.779 4.619a.531.531 0 1 0 .821-.672l-3.438-4.2.6-.486a1.065 1.065 0 0 1 1.448.114l4.27 4.659a1.586 1.586 0 0 1 .419 1.077v2.888h-5.835v-.767a1.6 1.6 0 0 0-.227-.819.531.531 0 1 0-.91.546.545.545 0 0 1 .076.273v.865a1.59 1.59 0 0 0-1.061 1.494v3.183a1.591 1.591 0 0 0 1.591 1.591h6.9a1.591 1.591 0 0 0 1.591-1.591v-3.183a1.59 1.59 0 0 0-1.061-1.494v-2.986a2.655 2.655 0 0 0-.7-1.793l-4.27-4.656a2.132 2.132 0 0 0-2.894-.225l-.614.493-.3-.372a1.055 1.055 0 0 1-.239-.676v-4.472a1.858 1.858 0 0 0-1.857-1.857zm10.875 21.221a.53.53 0 0 1-.53.53h-6.9a.53.53 0 0 1-.53-.53v-3.183a.531.531 0 0 1 .53-.531h6.9a.53.53 0 0 1 .53.531z" class="prefix__cls-1" data-name="Shape"/>
                    <path id="prefix__Shape-3" d="M1219.807 579.534a1.591 1.591 0 1 0 1.591 1.591 1.591 1.591 0 0 0-1.591-1.591zm0 2.122a.531.531 0 1 1 .53-.531.531.531 0 0 1-.53.531z" class="prefix__cls-1" data-name="Shape"/>
                    <path id="prefix__Shape-4" d="M1234.737 576.9l4.244-7.075a3.194 3.194 0 0 0 .455-1.638v-4.836a1.857 1.857 0 1 0-3.714 0v4.472a1.058 1.058 0 0 1-.24.671l-.305.372-.615-.494a2.131 2.131 0 0 0-2.892.226l-4.27 4.66a2.648 2.648 0 0 0-.7 1.794v2.986a1.593 1.593 0 0 0-1.061 1.494v3.183a1.591 1.591 0 0 0 1.592 1.591h6.9a1.591 1.591 0 0 0 1.591-1.591v-3.183a1.591 1.591 0 0 0-1.061-1.494v-.865a.528.528 0 0 1 .076-.273zm-6.555-2.923l4.271-4.66a1.065 1.065 0 0 1 1.446-.114l.606.486-3.438 4.2a.531.531 0 1 0 .822.671l3.777-4.615.64-.777a2.131 2.131 0 0 0 .477-1.344v-4.472a.8.8 0 0 1 1.592 0v4.836a2.118 2.118 0 0 1-.3 1.091l-4.244 7.076a1.588 1.588 0 0 0-.228.819v.767h-5.836v-2.888a1.59 1.59 0 0 1 .418-1.075zm6.479 8.738a.53.53 0 0 1-.53.53h-6.9a.531.531 0 0 1-.531-.53v-3.183a.531.531 0 0 1 .531-.531h6.9a.531.531 0 0 1 .53.531z" class="prefix__cls-1" data-name="Shape"/>
                    <path id="prefix__Shape-5" d="M1229.356 579.534a1.591 1.591 0 1 0 1.591 1.591 1.591 1.591 0 0 0-1.591-1.591zm0 2.122a.531.531 0 1 1 .53-.531.531.531 0 0 1-.53.531z" class="prefix__cls-1" data-name="Shape"/>
                    <path id="prefix__Shape-6" d="M1225.616 552.861a1.581 1.581 0 0 0-2.069 0c-.6.514-5.862 5.169-5.862 10.227 0 4.927 4.954 7.238 6.366 7.8v3.873a.531.531 0 1 0 1.061 0v-3.873c1.412-.56 6.366-2.871 6.366-7.8 0-5.058-5.262-9.713-5.862-10.227zm-1.035 17.089c-.974-.376-5.835-2.472-5.835-6.862 0-3.722 3.452-7.674 5.492-9.421a.524.524 0 0 1 .689 0c2.038 1.747 5.49 5.7 5.49 9.421 0 4.39-4.862 6.486-5.836 6.862z" class="prefix__cls-1" data-name="Shape"/>
                    <path id="prefix__Shape-7" d="M1225.112 557.252a.531.531 0 0 0-1.061 0v2.855l-2.416-1.208a.531.531 0 1 0-.474.95l2.89 1.445v1.466l-2.416-1.208a.531.531 0 1 0-.474.95l2.89 1.444v1.467l-2.416-1.208a.53.53 0 1 0-.474.949l2.89 1.445v.733a.531.531 0 0 0 1.061 0v-.732l2.89-1.442a.531.531 0 0 0-.475-.95l-2.415 1.206v-1.467L1228 562.5a.531.531 0 0 0-.475-.949l-2.415 1.205v-1.466l2.89-1.442a.531.531 0 0 0-.475-.95l-2.415 1.205z" class="prefix__cls-1" data-name="Shape"/>
                </g>
            </g>
        </g>
    </g>
</svg>
