<svg xmlns="http://www.w3.org/2000/svg" width="31.692" height="32.198" viewBox="0 0 31.692 32.198">
    <defs>
        <style>
            .prefix__cls-1{fill:#fff}
        </style>
    </defs>
    <g id="prefix__Group_3235" data-name="Group 3235" transform="translate(-1053.98 -552.293)">
        <path id="prefix__Path_1928" d="M1074.052 572.923v-4.806a1.587 1.587 0 0 0-1.585-1.585h-14.79a1.587 1.587 0 0 0-1.585 1.585v4.806a2.648 2.648 0 0 0-2.112 2.588v8.452a.528.528 0 0 0 .528.528h2.113a.528.528 0 0 0 .528-.528v-1.584H1073v1.584a.528.528 0 0 0 .528.528h2.112a.529.529 0 0 0 .529-.528v-8.452a2.649 2.649 0 0 0-2.117-2.588zm-16.9-4.806a.53.53 0 0 1 .528-.529h14.79a.53.53 0 0 1 .529.529v4.754h-1.057v-2.114a1.587 1.587 0 0 0-1.585-1.585h-3.169a1.587 1.587 0 0 0-1.585 1.585v2.114h-1.056v-2.114a1.587 1.587 0 0 0-1.584-1.585h-3.17a1.587 1.587 0 0 0-1.584 1.585v2.114h-1.057zm13.733 2.64v2.114h-4.225v-2.114a.529.529 0 0 1 .528-.528h3.169a.529.529 0 0 1 .525.528zm-7.394 0v2.114h-4.226v-2.114a.529.529 0 0 1 .528-.528h3.17a.529.529 0 0 1 .525.528zm11.62 12.677h-1.056v-1.584a.528.528 0 0 0-.528-.528h-16.9a.529.529 0 0 0-.529.528v1.584h-1.056v-4.225h20.072zm0-5.281h-20.072v-2.642a1.587 1.587 0 0 1 1.585-1.585h16.9a1.587 1.587 0 0 1 1.584 1.585z" class="prefix__cls-1" data-name="Path 1928"/>
        <path id="prefix__Path_1929" d="M1085.144 576.04h-7.394a.528.528 0 0 0-.529.528v7.923h1.057v-3.169h6.338v3.169h1.056v-7.923a.527.527 0 0 0-.528-.528zm-.528 4.225h-6.338V577.1h6.338z" class="prefix__cls-1" data-name="Path 1929"/>
        <path id="prefix__Rectangle_1341" d="M0 0H2.113V1.056H0z" class="prefix__cls-1" data-name="Rectangle 1341" transform="translate(1080.39 578.153)"/>
        <path id="prefix__Path_1930" d="M1084.061 571.646l-1.061-3.169a.526.526 0 0 0-.5-.36h-2.113a.527.527 0 0 0-.5.361l-1.056 3.169a.528.528 0 0 0 .5.7h1.584v1.584h-1.057v1.057h3.17v-1.057h-1.057v-1.584h1.585a.529.529 0 0 0 .5-.7zm-3.994-.36l.7-2.114h1.352l.7 2.114z" class="prefix__cls-1" data-name="Path 1930"/>
        <path id="prefix__Path_1931" d="M1085.361 559.207l-15.318-6.868a.535.535 0 0 0-.433 0l-15.318 6.868a.527.527 0 0 0-.312.481v6.339h1.056v-6l14.79-6.629 14.79 6.63v6h1.056v-6.339a.527.527 0 0 0-.311-.482z" class="prefix__cls-1" data-name="Path 1931"/>
    </g>
</svg>
