<svg xmlns="http://www.w3.org/2000/svg" width="29.826" height="31.957" viewBox="0 0 29.826 31.957">
    <defs>
        <style>
            .prefix__cls-1{fill:#fff}
        </style>
    </defs>
    <g id="prefix__Group_3231" data-name="Group 3231" transform="translate(-126.592 -552.414)">
        <path id="prefix__Path_1910" d="M153.222 574.784h-.834a3.773 3.773 0 0 0-1.685.4 2.713 2.713 0 0 1-2.418 0 3.729 3.729 0 0 0-.959-.319l1.039-8.068h1.129a.533.533 0 0 0 .533-.533v-2.13a.533.533 0 0 0-.533-.533h-2.13V562a.537.537 0 0 0-.156-.376l-2.508-2.506v-1.655l.808-.645 1.379 2.758.954-.476-1.482-2.963.658-.527h1.945a.532.532 0 0 0 .532-.533v-2.13a.533.533 0 0 0-.532-.533h-5.326a4.8 4.8 0 0 0-4.794 4.794.533.533 0 0 0 .533.532h1.065v1.378l-1.44 1.441a.532.532 0 0 0-.156.377v2.664h-1.065v-4.261l-.039-.191-.033-.061-.045-.08-2.014-2.516v-3.542a.533.533 0 0 0-.532-.533h-3.2a.533.533 0 0 0-.532.533v3.542l-2.014 2.516-.045.08-.033.061-.039.191v4.261h-2.13a.533.533 0 0 0-.533.533v2.13a.533.533 0 0 0 .533.533h1.13l2.069 16.046a.534.534 0 0 0 .529.465h12.539a3.19 3.19 0 0 0 2.376 1.066h.834a3.775 3.775 0 0 0 1.685-.4 2.72 2.72 0 0 1 2.418 0 3.775 3.775 0 0 0 1.685.4h.834a3.2 3.2 0 0 0 3.2-3.2v-3.2a3.2 3.2 0 0 0-3.2-3.189zm-5.858-21.3h1.065v1.065h-1.065zm1.6 11.185v1.065h-7.457v-1.065zm-9.017-7.99a3.734 3.734 0 0 1 3.691-3.2h2.662v1.343l-2.318 1.852zm3.691 1.066v1.055h-2.131v-1.06zm-3.728 3.416l1.285-1.285h2.755l2.351 2.35v1.374h-6.391zm-.533 3.508h1.065v3.728a.533.533 0 0 0 .295.48l3.195 1.6a.644.644 0 0 1 .328.379.681.681 0 0 1-.054.532.622.622 0 0 1-.834.28l-2.162-1.081a.532.532 0 0 0-.712.245l-.054.232v5.326a1.066 1.066 0 0 1-1.065 1.066v-4.794h-1.066v4.794h-1.065v-4.794h-1.065v4.794h-1.065v-4.794h-1.065v4.794a1.065 1.065 0 0 1-1.065-1.066v-11.726zm-6.924-11.185h2.13v2.663h-2.13zm-.277 3.729h2.684l1.279 1.6H130.9zm-1.853 2.663h6.391v3.724h-6.391zm-2.663 5.858v-1.065h4.26v1.065zm14.912 12.25v3.2a3.172 3.172 0 0 0 .187 1.066h-11.438l-1.993-15.446h2.59v9.587a2.13 2.13 0 0 0 2.131 2.13h5.326a2.13 2.13 0 0 0 2.13-2.13v-4.465l1.391.7a1.7 1.7 0 0 0 2.274-.772l.005-.009a1.727 1.727 0 0 0 .1-1.319 1.7 1.7 0 0 0-.863-1l-2.9-1.452v-1.269h5.786l-1.031 7.99h-.494a3.2 3.2 0 0 0-3.203 3.184zm12.783 3.2a2.131 2.131 0 0 1-2.131 2.131h-.834a2.71 2.71 0 0 1-1.208-.286 3.794 3.794 0 0 0-3.372 0 2.71 2.71 0 0 1-1.208.286h-.834a2.13 2.13 0 0 1-2.13-2.131v-.82a3.176 3.176 0 0 0 2.13.82h.834a3.774 3.774 0 0 0 1.685-.4 2.713 2.713 0 0 1 2.418 0 3.773 3.773 0 0 0 1.685.4h.834a3.176 3.176 0 0 0 2.131-.82zm-2.131-1.065h-.834a2.709 2.709 0 0 1-1.208-.285 3.787 3.787 0 0 0-3.372 0 2.709 2.709 0 0 1-1.208.285h-.834a2.13 2.13 0 0 1 0-4.261h.834a2.724 2.724 0 0 1 1.208.286 3.787 3.787 0 0 0 3.372 0 2.724 2.724 0 0 1 1.208-.286h.834a2.13 2.13 0 1 1 0 4.261z" class="prefix__cls-1" data-name="Path 1910"/>
        <path id="prefix__Rectangle_1333" d="M0 0H1.065V1.065H0z" class="prefix__cls-1" data-name="Rectangle 1333" transform="translate(152.69 576.914)"/>
        <path id="prefix__Rectangle_1334" d="M0 0H1.065V1.065H0z" class="prefix__cls-1" data-name="Rectangle 1334" transform="translate(147.364 576.914)"/>
        <path id="prefix__Rectangle_1335" d="M0 0H1.065V1.064H0z" class="prefix__cls-1" data-name="Rectangle 1335" transform="translate(145.233 577.447)"/>
        <path id="prefix__Rectangle_1336" d="M0 0H1.065V1.064H0z" class="prefix__cls-1" data-name="Rectangle 1336" transform="translate(150.559 577.447)"/>
    </g>
</svg>
