<svg xmlns="http://www.w3.org/2000/svg" width="32.089" height="32.089" viewBox="0 0 32.089 32.089">
    <defs>
        <style>
            .prefix__cls-1{fill:#fff}
        </style>
    </defs>
    <g id="prefix__Group_3233" data-name="Group 3233" transform="translate(-435.012 -552.348)">
        <path id="prefix__Path_1921" d="M466.068 564.574l-11.193-11.193a3.528 3.528 0 0 0-4.989 0l-5.068 5.066-3.341-3.341a3.476 3.476 0 1 0-4.916 4.916l.747.749a.532.532 0 0 0 .753 0 .53.53 0 0 0 0-.753l-.746-.748a2.41 2.41 0 0 1 3.406-3.41l6.938 6.938-3.407 3.408-4.65-4.649a.533.533 0 0 0-.753 0 .531.531 0 0 0 0 .754l1.053 1.052-3.421 3.422a3.529 3.529 0 0 0 0 4.989l2.18 2.183a.758.758 0 0 1 .224.605.767.767 0 0 1-.31.566l-1.833 1.351a4.275 4.275 0 0 0-1.711 3.832 4.571 4.571 0 0 0 4.107 4.107c.13.013.266.019.4.019a4.29 4.29 0 0 0 3.435-1.73l1.348-1.833a.776.776 0 0 1 1.171-.086l2.183 2.18a3.524 3.524 0 0 0 4.989 0l2.045-2.045a9.26 9.26 0 0 0 6.543 1.45 2.427 2.427 0 0 0 1.826-3.437l-.008-.018a2.736 2.736 0 0 0-.182-.318l-2.019-2.948-.365-.524 1.987-1.987a.532.532 0 0 0 0-.753.547.547 0 0 0-.754 0l-1.864 1.864a48.115 48.115 0 0 0-4.645-5.4l-9.655-9.655 5.068-5.067a2.464 2.464 0 0 1 3.481 0l11.193 11.193a2.466 2.466 0 0 1 0 3.483l-2.044 2.043a.531.531 0 0 0 0 .754.547.547 0 0 0 .756 0l2.042-2.045a3.527 3.527 0 0 0 0-4.988zm-14.158 17.64a2.458 2.458 0 0 1-3.482 0l-2.183-2.18a1.84 1.84 0 0 0-2.783.208l-1.351 1.831a3.2 3.2 0 0 1-2.871 1.283 3.5 3.5 0 0 1-3.148-3.147 3.213 3.213 0 0 1 1.283-2.872l1.831-1.351a1.842 1.842 0 0 0 .211-2.782l-2.183-2.184a2.466 2.466 0 0 1 0-3.481l3.422-3.422 2.879 2.883a2.661 2.661 0 0 0 .339 3.347l9.428 9.424c.17.172.355.342.548.506zm10.332-2.237a1.306 1.306 0 0 1-.112.537 1.345 1.345 0 0 1-1.04.8 8.21 8.21 0 0 1-7.034-2.3l-9.428-9.425a1.6 1.6 0 0 1-.31-1.813l9.978 9.978a7.491 7.491 0 0 0 5.529 2.345 10.565 10.565 0 0 0 2.407-.3zm-7.769-10.365a47.019 47.019 0 0 1 5.516 6.643l1.755 2.566a7.775 7.775 0 0 1-3.961-.1A6.687 6.687 0 0 1 455.05 577l-10.044-10.04 3.409-3.408z" class="prefix__cls-1" data-name="Path 1921"/>
        <path id="prefix__Path_1922" d="M440.977 578.472a2.116 2.116 0 1 0 .618 1.494 2.095 2.095 0 0 0-.618-1.494zm-.754 2.235a1.047 1.047 0 0 1-1.481-1.481 1.049 1.049 0 0 1 1.789.74 1.056 1.056 0 0 1-.308.741z" class="prefix__cls-1" data-name="Path 1922"/>
        <path id="prefix__Path_1923" d="M440.1 556.481a1.532 1.532 0 0 0-2.165 0 1.535 1.535 0 0 0 0 2.167 1.529 1.529 0 0 0 2.165 0 1.527 1.527 0 0 0 0-2.167zm-.754 1.414a.479.479 0 0 1-.657 0 .468.468 0 0 1 0-.66.467.467 0 0 1 .657 0 .471.471 0 0 1 0 .66z" class="prefix__cls-1" data-name="Path 1923"/>
    </g>
</svg>
