<?xml version="1.0" encoding="utf-8"?>
<!-- Generator: Adobe Illustrator 19.0.0, SVG Export Plug-In . SVG Version: 6.00 Build 0)  -->
<svg version="1.1" id="Layer_1" xmlns="http://www.w3.org/2000/svg" xmlns:xlink="http://www.w3.org/1999/xlink" x="0px" y="0px"
	 viewBox="-467 269 24 24" style="enable-background:new -467 269 24 24;" xml:space="preserve">
<style type="text/css">
	.st0{fill:#85979E;}
</style>
<title>Messages</title>
<g>
	<path class="st0" d="M-454.8,290.7c-5.6,0-10.1-4.5-10.1-10.1c0-2.7,1.1-5.4,3.1-7.3c0.2-0.2,0.5-0.2,0.7,0c0,0,0,0,0,0
		c0.2,0.2,0.2,0.5,0,0.7c-3.6,3.5-3.7,9.2-0.3,12.8c3.5,3.6,9.2,3.7,12.8,0.3c3.6-3.5,3.7-9.2,0.3-12.8c-0.1-0.1-0.2-0.2-0.3-0.3
		c-0.2-0.2-0.2-0.5,0-0.7c0.2-0.2,0.5-0.2,0.7,0c0,0,0,0,0,0c4,3.9,4.1,10.2,0.3,14.2C-449.4,289.6-452.1,290.7-454.8,290.7z"/>
	<path class="st0" d="M-454.8,281.5c-0.3,0-0.5-0.2-0.5-0.5v-10.2c0-0.3,0.2-0.5,0.5-0.5s0.5,0.2,0.5,0.5V281
		C-454.3,281.3-454.5,281.5-454.8,281.5z"/>
</g>
</svg>
