<svg xmlns="http://www.w3.org/2000/svg" viewBox="0 0 24 24"><defs><style>.cls-1{fill:#85979e;}.cls-2{fill:none;}</style></defs><title>Manage RFQ</title><g id="Layer_2" data-name="Layer 2"><g id="Layer_1-2" data-name="Layer 1"><g id="Quotemarks-right"><path class="cls-1" d="M11.25,9.27A4.79,4.79,0,0,0,6.53,4.59,4.72,4.72,0,0,0,6.11,14,5.36,5.36,0,0,1,5,17.1a.5.5,0,0,0,0,.63l1,1,0,0c.27.28.4.4.58.57a.51.51,0,0,0,.33.13.47.47,0,0,0,.32-.12A12.46,12.46,0,0,0,11.25,9.27Zm-4.33,9L6.73,18l0,0-.7-.7c1.37-2.18,1.11-3.73,1-4a.49.49,0,0,0-.44-.26,3.74,3.74,0,0,1,0-7.48,3.83,3.83,0,0,1,3.74,3.78A11.49,11.49,0,0,1,6.92,18.24Z"/><path class="cls-1" d="M22.15,9.28h0a4.79,4.79,0,0,0-4.72-4.68A4.72,4.72,0,0,0,17,14a5.36,5.36,0,0,1-1.13,3.09.5.5,0,0,0,0,.63c.44.43.72.72.93.93l.05.05c.26.27.39.4.58.57a.51.51,0,0,0,.33.13.47.47,0,0,0,.32-.12A12.44,12.44,0,0,0,22.15,9.28Zm-4.33,9L17.61,18l0,0-.67-.67c1.37-2.18,1.11-3.73,1-4a.49.49,0,0,0-.44-.26,3.74,3.74,0,0,1,0-7.48,3.83,3.83,0,0,1,3.74,3.78A11.49,11.49,0,0,1,17.82,18.24Z"/></g><rect class="cls-2" width="24" height="24"/></g></g></svg>