<svg xmlns="http://www.w3.org/2000/svg" viewBox="0 0 24 24"><defs><style>.cls-1{fill:#85979e;}.cls-2{fill:none;}</style></defs><title>Messages</title><g id="Layer_2" data-name="Layer 2"><g id="Layer_1-2" data-name="Layer 1"><path class="cls-1" d="M21,3.86H3A1.82,1.82,0,0,0,1.15,5.67V18.33A1.82,1.82,0,0,0,3,20.14H21a1.82,1.82,0,0,0,1.81-1.81V5.67A1.82,1.82,0,0,0,21,3.86ZM3,4.77H21a.65.65,0,0,1,.19,0c-1.57,1.43-6.76,6.18-8.57,7.81a.92.92,0,0,1-1.32,0C9.53,11,4.34,6.24,2.77,4.81A.65.65,0,0,1,3,4.77Zm-.9,13.56V5.67a.7.7,0,0,1,0-.25L9.27,12c-2.34,2-6,5.44-7.17,6.59A.85.85,0,0,1,2.06,18.33Zm19,.9H3a.65.65,0,0,1-.2,0C4,18,7.65,14.55,10,12.58l.79.71a1.79,1.79,0,0,0,2.52,0l.79-.71c2.3,2,5.95,5.42,7.19,6.61A.65.65,0,0,1,21,19.23Zm.9-.9a.85.85,0,0,1,0,.23C20.69,17.41,17.07,14,14.73,12l7.16-6.55a.7.7,0,0,1,.05.25Z"/><rect class="cls-2" width="24" height="24"/></g></g></svg>