<svg xmlns="http://www.w3.org/2000/svg" viewBox="0 0 24 24"><defs><style>.cls-1{fill:#85979e;}.cls-2{fill:none;}</style></defs><title>Order History</title><g id="Layer_2" data-name="Layer 2"><g id="Layer_1-2" data-name="Layer 1"><path class="cls-1" d="M19.93,6.6a.46.46,0,0,0-.46-.42H15.94V4.85a3.95,3.95,0,1,0-7.89,0V6.18H4.53a.48.48,0,0,0-.47.42l-1.21,14A2.31,2.31,0,0,0,5.16,23.1H18.84a2.31,2.31,0,0,0,2.31-2.52ZM9,4.85a3,3,0,1,1,6,0V6.18H9ZM19.86,21.72a1.36,1.36,0,0,1-1,.45H5.16a1.4,1.4,0,0,1-1-.45,1.42,1.42,0,0,1-.36-1.06L5,7.11h3.1V10A1.58,1.58,0,1,0,9,10V7.11h6V10a1.58,1.58,0,1,0,.93,0V7.11H19l1.18,13.54A1.37,1.37,0,0,1,19.86,21.72ZM8.45,10.87h.14a.65.65,0,1,1-.14,0Zm7,0h.14a.65.65,0,0,1-.07,1.29.65.65,0,0,1-.07-1.29Z"/><rect class="cls-2" width="24" height="24"/></g></g></svg>