<svg xmlns="http://www.w3.org/2000/svg" viewBox="0 0 18 18"><defs><style>.cls-1{fill:#85979e;}.cls-2{fill:none;}</style></defs><title>Product Listing</title><g id="Layer_2" data-name="Layer 2"><g id="Layer_1-2" data-name="Layer 1"><path class="cls-1" d="M15.09,8.1H13.68a.44.44,0,0,0-.44.44v0a.44.44,0,0,0,.44.44h1.41a.44.44,0,0,0,.44-.44v0A.43.43,0,0,0,15.09,8.1Zm.36.46a.36.36,0,0,1-.36.35H13.68a.35.35,0,0,1-.35-.35v0a.35.35,0,0,1,.35-.36h1.41a.36.36,0,0,1,.36.36Z"/><path class="cls-1" d="M16.77,8.23H16a.94.94,0,0,0-.88-.62h-.83V5.44a.34.34,0,0,0-.16-.29L7.56,1.38a.32.32,0,0,0-.33,0L.71,5.15a.34.34,0,0,0-.17.28V13a.34.34,0,0,0,.17.29L7.24,17a.3.3,0,0,0,.16.05A.34.34,0,0,0,7.57,17l3.3-1.9V16.4A1.12,1.12,0,0,0,12,17.52h4.79a1.1,1.1,0,0,0,.78-.32,1.08,1.08,0,0,0,.34-.79v-7A1.15,1.15,0,0,0,16.77,8.23ZM12,8.9h.81a.93.93,0,0,0,.86.59h1.41A.93.93,0,0,0,16,8.9h.81a.47.47,0,0,1,.48.47v7a.47.47,0,0,1-.14.33.49.49,0,0,1-.33.13H12a.46.46,0,0,1-.46-.45v-7A.47.47,0,0,1,12,8.9Zm3.09-.8a.43.43,0,0,1,.44.44v0a.44.44,0,0,1-.44.44H13.68a.44.44,0,0,1-.44-.44v0a.44.44,0,0,1,.44-.44Zm-7.69-6L9.94,3.51,4.07,6.9,1.54,5.43ZM7.08,16.17,1.2,12.78V6L7.08,9.39ZM7.4,8.82,4.73,7.28,10.6,3.89l2.67,1.54Zm3.47.55v5L7.74,16.17V9.39L13.59,6v1.6a1,1,0,0,0-.79.62H12A1.15,1.15,0,0,0,10.87,9.37Z"/><path class="cls-1" d="M13.38,10.42l-.71.71-.22-.21a.24.24,0,0,0-.35,0,.25.25,0,0,0,0,.34l.39.39a.26.26,0,0,0,.35,0h0l.88-.89a.24.24,0,0,0-.34-.34Z"/><path class="cls-1" d="M13.38,12.65l-.71.71-.22-.22a.25.25,0,0,0-.35.35l.39.39a.26.26,0,0,0,.35,0h0l.88-.89a.24.24,0,0,0-.34-.34Z"/><path class="cls-1" d="M13.38,14.87l-.71.71-.22-.21a.24.24,0,0,0-.35,0,.25.25,0,0,0,0,.34l.39.39a.24.24,0,0,0,.35,0h0l.88-.88a.24.24,0,0,0,0-.35.25.25,0,0,0-.34,0Z"/><path class="cls-1" d="M16.49,10.79H15a.25.25,0,1,0,0,.49h1.53a.25.25,0,0,0,0-.49Z"/><path class="cls-1" d="M16.49,11.36H15a.32.32,0,0,1-.33-.33A.33.33,0,0,1,15,10.7h1.53a.33.33,0,0,1,.33.33A.33.33,0,0,1,16.49,11.36ZM15,10.88a.16.16,0,0,0-.16.15.16.16,0,0,0,.16.16h1.53a.16.16,0,0,0,.15-.16.15.15,0,0,0-.15-.15Z"/><path class="cls-1" d="M16.49,13H15a.24.24,0,1,0,0,.48h1.53a.24.24,0,1,0,0-.48Z"/><path class="cls-1" d="M16.49,13.59H15a.33.33,0,0,1,0-.66h1.53a.33.33,0,1,1,0,.66ZM15,13.1a.16.16,0,0,0,0,.32h1.53a.16.16,0,0,0,0-.32Z"/><path class="cls-1" d="M16.49,15.24H15a.25.25,0,1,0,0,.49h1.53a.25.25,0,0,0,0-.49Z"/><path class="cls-1" d="M16.49,15.82H15a.33.33,0,0,1-.33-.33.32.32,0,0,1,.33-.33h1.53a.33.33,0,0,1,.33.33A.33.33,0,0,1,16.49,15.82ZM15,15.33a.16.16,0,0,0-.16.16.16.16,0,0,0,.16.15h1.53a.15.15,0,0,0,.15-.15.16.16,0,0,0-.15-.16Z"/><rect class="cls-2" width="18" height="18"/></g></g></svg>