<svg xmlns="http://www.w3.org/2000/svg" viewBox="0 0 24 24"><defs><style>.cls-1{fill:#85979e;}.cls-2{fill:none;}</style></defs><title>Products</title><g id="Layer_2" data-name="Layer 2"><g id="Layer_1-2" data-name="Layer 1"><path class="cls-1" d="M23,5.36,12.15.15a.32.32,0,0,0-.3,0L1.05,5.36a.34.34,0,0,0-.19.31V18.33a.34.34,0,0,0,.19.31l10.8,5.21a.3.3,0,0,0,.3,0L23,18.64a.34.34,0,0,0,.19-.31V5.67A.34.34,0,0,0,23,5.36ZM12,.85,22,5.67,19.1,7.07,19,7,9.11,2.24ZM8.33,2.64l10,4.81-2,1-10-4.82ZM18.54,8.11v3.65l-1.91.92V9Zm3.91,10L12.35,23V11.1l2.41-1.16a.35.35,0,1,0-.31-.63L12,10.5,11,10a.35.35,0,0,0-.46.16.36.36,0,0,0,.16.47l.92.44V23L1.55,18.11V6.23L9.24,9.94a.4.4,0,0,0,.15,0,.35.35,0,0,0,.16-.66L2,5.67,5.47,4,15.93,9.05h0v4.18a.32.32,0,0,0,.17.29.3.3,0,0,0,.18.06.42.42,0,0,0,.15,0L19,12.29a.33.33,0,0,0,.19-.31V7.78l3.22-1.55V18.11Z"/><path class="cls-1" d="M12,24a.45.45,0,0,1-.2,0L1,18.74a.46.46,0,0,1-.26-.41V5.67A.46.46,0,0,1,1,5.26L11.8.05a.47.47,0,0,1,.4,0L23,5.26a.46.46,0,0,1,.26.41V18.33a.46.46,0,0,1-.26.41L12.2,24A.45.45,0,0,1,12,24ZM12,.22l-.11,0L1.1,5.45A.26.26,0,0,0,1,5.67V18.33a.26.26,0,0,0,.14.22l10.79,5.21a.28.28,0,0,0,.22,0L22.9,18.55a.26.26,0,0,0,.14-.22V5.67a.26.26,0,0,0-.14-.22L12.11.24Zm.24,22.93V11l2.47-1.19a.29.29,0,0,0,.13-.14.31.31,0,0,0,0-.19.24.24,0,0,0-.14-.12.21.21,0,0,0-.19,0L12,10.61l-1-.49a.31.31,0,0,0-.19,0,.29.29,0,0,0-.14.13.28.28,0,0,0,0,.18.2.2,0,0,0,.13.14l1,.48V23.15l-10.31-5V6.06L9.29,9.85l.1,0a.23.23,0,0,0,.22-.14.24.24,0,0,0-.11-.32L1.77,5.67l3.7-1.78,0,0L16,9l0,0v4.22a.23.23,0,0,0,.11.2.26.26,0,0,0,.24,0L19,12.2a.24.24,0,0,0,.14-.22V7.71l3.42-1.65V18.17l-.06,0Zm.21-12V22.82L22.34,18V6.39l-3,1.45V12a.46.46,0,0,1-.26.41l-2.6,1.26a.49.49,0,0,1-.44,0,.45.45,0,0,1-.21-.38V9.12l-10.36-5L2.25,5.67,9.59,9.22a.42.42,0,0,1,.23.26.45.45,0,0,1,0,.34.44.44,0,0,1-.41.26A.45.45,0,0,1,9.2,10L1.66,6.39V18l9.89,4.78V11.17l-.86-.42a.42.42,0,0,1-.23-.26.41.41,0,0,1,0-.34.43.43,0,0,1,.25-.23.43.43,0,0,1,.35,0l.92.44,2.41-1.16a.45.45,0,0,1,.34,0,.42.42,0,0,1,.26.23.41.41,0,0,1,0,.34.42.42,0,0,1-.23.26Zm4.07,1.68V9l2.12-1v3.88Zm.21-3.75v3.42l1.7-.82V8.28Zm-.47-.54,0,0L6.05,3.62l2.28-1.1,0,0L18.54,7.45ZM6.53,3.62l9.73,4.7,1.8-.87L8.33,2.75ZM19.08,7.19l0,0,0,0L8.87,2.24,12,.73l.05,0L22.23,5.67ZM9.35,2.24l9.73,4.7h0l2.65-1.28L12,1Z"/><path class="cls-1" d="M4.43,16.76,2.84,16a.34.34,0,0,0-.46.17.35.35,0,0,0,.16.46l1.58.77a.45.45,0,0,0,.16,0,.34.34,0,0,0,.31-.2A.35.35,0,0,0,4.43,16.76Z"/><path class="cls-1" d="M4.28,17.53a.46.46,0,0,1-.2-.05L2.5,16.72a.47.47,0,0,1-.22-.61.49.49,0,0,1,.26-.23.47.47,0,0,1,.35,0l1.58.76a.46.46,0,0,1-.19.87ZM2.69,16.06l-.08,0a.24.24,0,0,0-.14.12.25.25,0,0,0,.12.33l1.58.76a.2.2,0,0,0,.11,0,.26.26,0,0,0,.22-.14.26.26,0,0,0-.12-.33L2.8,16.09A.23.23,0,0,0,2.69,16.06Z"/><path class="cls-1" d="M5.89,15.81l-3-1.47a.35.35,0,1,0-.31.63l3,1.47a.4.4,0,0,0,.15,0,.35.35,0,0,0,.16-.66Z"/><path class="cls-1" d="M5.73,16.58a.45.45,0,0,1-.19,0l-3-1.47a.44.44,0,0,1-.21-.6.42.42,0,0,1,.26-.23.45.45,0,0,1,.34,0l3,1.47h0a.43.43,0,0,1,.23.25.47.47,0,0,1,0,.35A.44.44,0,0,1,5.73,16.58Zm-3-2.17-.08,0a.24.24,0,0,0-.14.12.26.26,0,0,0,.12.33l3,1.46a.19.19,0,0,0,.1,0A.25.25,0,0,0,6,16.23.21.21,0,0,0,6,16a.24.24,0,0,0-.12-.14h0l-3-1.46A.2.2,0,0,0,2.69,14.41Z"/><rect class="cls-2" width="24" height="24"/></g></g></svg>