<svg xmlns="http://www.w3.org/2000/svg" width="22.001" height="16.051" viewBox="0 0 22.001 16.051">
    <defs>
        <style>
            .prefix__cls-1{fill:#91a1a8;stroke:#91a1a8;stroke-miterlimit:10;stroke-width:.2px}
        </style>
    </defs>
    <g id="prefix__Group_184" data-name="Group 184" transform="translate(-4127.209 -32.081)">
        <g id="prefix__Group_183" data-name="Group 183">
            <g id="prefix__Group_182" data-name="Group 182">
                <g id="prefix__Quotemarks-right">
                    <g id="prefix__Group_180" data-name="Group 180">
                        <path id="prefix__Path_147" d="M4137.4 37.19a5.124 5.124 0 0 0-5.047-5.009 5.048 5.048 0 0 0-.455 10.075 5.689 5.689 0 0 1-1.211 3.307.524.524 0 0 0 .061.67c.494.495.8.807 1.024 1.034l.02.021c.291.3.423.43.619.607a.52.52 0 0 0 .353.137.526.526 0 0 0 .345-.129 13.327 13.327 0 0 0 4.291-10.713zm-4.631 9.59l-.211-.214-.016-.016c-.191-.195-.419-.427-.747-.757 1.465-2.331 1.181-3.991 1.028-4.281a.537.537 0 0 0-.47-.287 4 4 0 1 1 0-7.992 4.1 4.1 0 0 1 4 4.034 12.332 12.332 0 0 1-3.58 9.513z" class="prefix__cls-1" data-name="Path 147"/>
                    </g>
                    <g id="prefix__Group_181" data-name="Group 181">
                        <path id="prefix__Path_148" d="M4149.065 37.2v-.01a5.125 5.125 0 0 0-5.047-5.009 5.048 5.048 0 0 0-.455 10.075 5.693 5.693 0 0 1-1.212 3.307.526.526 0 0 0 .061.67c.468.469.769.774.989 1l.052.052c.281.287.423.432.623.613a.526.526 0 0 0 .7.007 13.328 13.328 0 0 0 4.289-10.705zm-4.632 9.583l-.23-.234-.031-.031-.713-.722c1.464-2.33 1.182-3.99 1.029-4.282a.538.538 0 0 0-.47-.286 4 4 0 1 1 0-7.992 4.1 4.1 0 0 1 4 4.034 12.33 12.33 0 0 1-3.585 9.51z" class="prefix__cls-1" data-name="Path 148"/>
                    </g>
                </g>
            </g>
        </g>
    </g>
</svg>
