<svg xmlns="http://www.w3.org/2000/svg" viewBox="0 0 24 24"><defs><style>.cls-1{fill:#85979e;}.cls-2{fill:none;}</style></defs><title>Reviews &amp;amp; Feedbacks</title><g id="Layer_2" data-name="Layer 2"><g id="Layer_1-2" data-name="Layer 1"><path class="cls-1" d="M21.58,14.5a1.75,1.75,0,0,0-.53-1.27,1.74,1.74,0,0,0,.39-.54,1.66,1.66,0,0,0,.14-.66A1.63,1.63,0,0,0,20,10.4h-4.5A.49.49,0,0,1,15,10a4.31,4.31,0,0,1,.25-2,6.28,6.28,0,0,0,.39-2.19V5.36a2.55,2.55,0,0,0-2.55-2.55.46.46,0,0,0-.46.39l-.23,1.54A10.24,10.24,0,0,1,10.58,9.1a2.67,2.67,0,0,1-2.13,1.08H7.79V9a.45.45,0,0,0-.45-.45H2.88A.46.46,0,0,0,2.42,9V20.41a.46.46,0,0,0,.46.45H7.34a.45.45,0,0,0,.45-.45v-1h.58a6.45,6.45,0,0,1,3.41,1,7.08,7.08,0,0,0,3.9.8h3.63a1.7,1.7,0,0,0,1.38-2.68A1.71,1.71,0,0,0,21,15.75,1.73,1.73,0,0,0,21.58,14.5Zm-7.53-4.44a1.4,1.4,0,0,0,1.41,1.26H20a.71.71,0,0,1,.61.35A.71.71,0,0,1,20,12.73H18.12a.46.46,0,0,0,0,.92h1.72a.83.83,0,0,1,.72,1.24.84.84,0,0,1-.72.41H18.12a.46.46,0,1,0,0,.91h1.75a.79.79,0,0,1,0,1.58H17.35a.46.46,0,1,0,0,.91h2a.79.79,0,0,1,0,1.57H15.68a6.29,6.29,0,0,1-3.42-.67A7.44,7.44,0,0,0,8.37,18.5H7.79V11.1h.66a3.59,3.59,0,0,0,2.87-1.47,11,11,0,0,0,1.94-4.75l.17-1.11a1.64,1.64,0,0,1,1.26,1.59v.43a5.43,5.43,0,0,1-.34,1.87A5.16,5.16,0,0,0,14.05,10.06Zm-7.17-.6V20H3.34V9.46Z"/><rect class="cls-2" width="24" height="24"/></g></g></svg>