<?xml version="1.0" encoding="utf-8"?>
<!-- Generator: Adobe Illustrator 19.0.0, SVG Export Plug-In . SVG Version: 6.00 Build 0)  -->
<svg version="1.1" id="Layer_1" xmlns="http://www.w3.org/2000/svg" xmlns:xlink="http://www.w3.org/1999/xlink" x="0px" y="0px"
	 viewBox="-467 269 24 24" style="enable-background:new -467 269 24 24;" xml:space="preserve">
<style type="text/css">
	.st0{fill:#85979E;}
</style>
<title>Messages</title>
<g>
	<path class="st0" d="M-446.6,280.7c-0.2-0.2,0.9-0.1-16.4-0.1c-0.1,0-0.2,0.1-0.3,0.1c-3.1,3.1-3.1,3-2.9,3.4s0.4,0.3,2.8,0.3v8
		c0,0.3,0.2,0.5,0.5,0.5h16.1c0.3,0,0.5-0.2,0.5-0.5v-8c2.5,0,2.6,0.1,2.8-0.3C-443.5,283.7-443.6,283.8-446.6,280.7z M-462.8,281.5
		h3.4l-1.9,1.9h-3.4L-462.8,281.5z M-462.6,284.3c1.5,0,1.6,0,1.8-0.1l2-2v9.7h-3.8V284.3z M-447.4,291.9h-10.4v-9.7
		c2.2,2.2,2.1,2.2,2.4,2.2h8V291.9z M-455.3,283.4l-1.9-1.9h10l1.9,1.9H-455.3z"/>
	<path class="st0" d="M-446,270.1h-18c-1.3,0-2.4,1.1-2.4,2.4v2.8c0,1.3,1.1,2.4,2.4,2.4h6.9l1.8,1.8c0.2,0.2,0.5,0.2,0.7,0
		c0,0,0,0,0,0l1.8-1.8h6.9c1.3,0,2.4-1.1,2.4-2.4v-2.8C-443.6,271.2-444.7,270.1-446,270.1z M-444.6,275.4c0,0.8-0.6,1.4-1.4,1.4
		h-7.1c-0.3,0-0.2,0-1.9,1.7c-1.7-1.7-1.6-1.7-1.9-1.7h-7.1c-0.8,0-1.4-0.6-1.4-1.4v-2.8c0-0.8,0.6-1.4,1.4-1.4h18
		c0.8,0,1.4,0.6,1.4,1.4V275.4z"/>
</g>
</svg>
