<svg xmlns="http://www.w3.org/2000/svg" viewBox="0 0 24 24"><defs><style>.cls-1{fill:#85979e;}.cls-2{fill:none;}</style></defs><title>Settings</title><g id="Layer_2" data-name="Layer 2"><g id="Layer_1-2" data-name="Layer 1"><path class="cls-1" d="M13.37,23H10.63a1,1,0,0,1-1-.91l-.19-1.58a8.78,8.78,0,0,1-1.58-.66l-1.26,1a1,1,0,0,1-1.36-.08L3.28,18.78a1,1,0,0,1-.08-1.36l1-1.26a8.25,8.25,0,0,1-.65-1.57L2,14.4a1.06,1.06,0,0,1-.91-1V10.63a1,1,0,0,1,.91-1l1.59-.19a8.08,8.08,0,0,1,.65-1.58l-1-1.25a1,1,0,0,1,.08-1.37L5.22,3.28A1,1,0,0,1,6.58,3.2l1.26,1a8.08,8.08,0,0,1,1.58-.65L9.61,2a1,1,0,0,1,1-.91h2.74a1,1,0,0,1,1,.91l.19,1.59a8.08,8.08,0,0,1,1.58.65l1.25-1a1,1,0,0,1,1.37.08l1.94,1.94a1,1,0,0,1,.08,1.36l-1,1.26a8.08,8.08,0,0,1,.65,1.58l1.59.19a1,1,0,0,1,.91,1v2.74a1,1,0,0,1-.91,1l-1.59.19a8.08,8.08,0,0,1-.65,1.58l1,1.25a1,1,0,0,1-.08,1.37l-1.94,1.94a1,1,0,0,1-1.36.08l-1.26-1a8.08,8.08,0,0,1-1.58.65l-.19,1.59A1,1,0,0,1,13.37,23Zm-5.61-4.2.26.15a7.78,7.78,0,0,0,1.91.79l.29.08L10.48,22a.16.16,0,0,0,.15.13h2.74a.16.16,0,0,0,.15-.13l.26-2.17.29-.08A8,8,0,0,0,16,18.91l.26-.15L18,20.11a.16.16,0,0,0,.2,0l1.94-1.94a.17.17,0,0,0,0-.2l-1.35-1.72.15-.26a7.85,7.85,0,0,0,.79-1.91l.08-.29L22,13.52a.17.17,0,0,0,.13-.15V10.63a.16.16,0,0,0-.13-.15l-2.17-.26-.08-.29A8,8,0,0,0,18.91,8l-.15-.26L20.11,6a.16.16,0,0,0,0-.2L18.16,3.9a.17.17,0,0,0-.2,0L16.24,5.24,16,5.09a8.19,8.19,0,0,0-1.91-.79l-.29-.08-.26-2.17a.18.18,0,0,0-.15-.13H10.63a.16.16,0,0,0-.15.13l-.26,2.17-.29.08A8.19,8.19,0,0,0,8,5.09l-.26.15L6,3.89a.17.17,0,0,0-.2,0L3.9,5.84a.18.18,0,0,0,0,.21L5.24,7.76,5.09,8A8,8,0,0,0,4.3,9.93l-.08.29-2.17.26a.17.17,0,0,0-.13.15v2.74a.16.16,0,0,0,.13.15l2.18.26.07.29A7.85,7.85,0,0,0,5.09,16l.15.26L3.89,18a.18.18,0,0,0,0,.2L5.84,20.1a.16.16,0,0,0,.2,0ZM12,17.7A5.7,5.7,0,1,1,17.7,12,5.71,5.71,0,0,1,12,17.7ZM12,7.18A4.82,4.82,0,1,0,16.82,12,4.82,4.82,0,0,0,12,7.18Z"/><rect class="cls-2" width="24" height="24"/></g></g></svg>