<svg xmlns="http://www.w3.org/2000/svg" viewBox="0 0 24 24"><defs><style>.cls-1{fill:#85979e;}.cls-2{fill:none;}</style></defs><title>Statistics</title><g id="Layer_2" data-name="Layer 2"><g id="Layer_1-2" data-name="Layer 1"><path class="cls-1" d="M2,20.92V19.57l3.4-3.73a1.08,1.08,0,0,0,1.43,0l2.63,2a1.12,1.12,0,0,0,1.32.86,1.13,1.13,0,0,0,.88-1.06,1.23,1.23,0,0,0,0-.2l2.91-3.24a1.18,1.18,0,0,0,.45.1,1.13,1.13,0,0,0,.72-.27l2.72,2.42a1.13,1.13,0,0,0-.09.45,1.11,1.11,0,1,0,1.11-1.12,1.28,1.28,0,0,0-.51.13L16.09,13.3v-.19a1.12,1.12,0,1,0-2.11.51L11.21,16.7a1.16,1.16,0,0,0-.7-.24,1.12,1.12,0,0,0-.93.51L7.17,15.14a.48.48,0,0,0,0-.17,1.12,1.12,0,0,0-2.23,0,1.49,1.49,0,0,0,0,.21L2,18.47V14.38l3.58-3.26a1.15,1.15,0,0,0,.51.14,1.12,1.12,0,0,0,1.11-1.12,1.49,1.49,0,0,0,0-.21L10,6.8h.19a1.14,1.14,0,0,0,.8-.33l3,1A1.12,1.12,0,0,0,16.09,7l2.6-1.62a1.11,1.11,0,1,0-.09-1.58,1.07,1.07,0,0,0-.28.76.43.43,0,0,0,0,.16L15.71,6.35a1.12,1.12,0,0,0-1.57.07,1,1,0,0,0-.18.27l-2.7-.9V5.68a1.12,1.12,0,0,0-1.11-1.12A1.11,1.11,0,0,0,9,5.67a1.08,1.08,0,0,0,.27.73L6.74,9.27A1.1,1.1,0,0,0,6.06,9a1.12,1.12,0,0,0-1.12,1.11,1.23,1.23,0,0,0,.1.46L2,13.39v-11H1.23v19a.37.37,0,0,0,.37.37H22.77v-.74Zm17.46-4.46a.37.37,0,0,1,.37.37.38.38,0,0,1-.37.37.37.37,0,0,1-.37-.37A.36.36,0,0,1,19.43,16.46ZM15,12.74a.38.38,0,0,1,0,.75.38.38,0,0,1,0-.75ZM10.51,17.2a.38.38,0,0,1,.38.37.38.38,0,0,1-.75,0A.38.38,0,0,1,10.51,17.2ZM6.06,14.6a.38.38,0,0,1,.37.37.38.38,0,0,1-.75,0A.38.38,0,0,1,6.06,14.6ZM19.43,4.2a.38.38,0,0,1,.37.37.37.37,0,0,1-.37.37.36.36,0,0,1-.37-.37A.37.37,0,0,1,19.43,4.2ZM15,6.8a.37.37,0,0,1,.37.37.36.36,0,0,1-.37.37.37.37,0,0,1-.37-.37A.38.38,0,0,1,15,6.8ZM10.14,5.31a.38.38,0,0,1,0,.75.38.38,0,0,1,0-.75ZM6.06,9.77a.38.38,0,0,1,.37.37.38.38,0,0,1-.75,0A.38.38,0,0,1,6.06,9.77Z"/><path class="cls-1" d="M22.8,21.68H1.6a.4.4,0,0,1-.4-.39v-19H2v11l3-2.75A1.14,1.14,0,0,1,6.06,9a1.12,1.12,0,0,1,.68.23L9.27,6.4A1.07,1.07,0,0,1,9,5.67a1.14,1.14,0,0,1,1.13-1.13h0a1.14,1.14,0,0,1,1.13,1.15v.08L14,6.66a.85.85,0,0,1,.17-.25A1.11,1.11,0,0,1,14.91,6a1.18,1.18,0,0,1,.81.28l2.57-1.61V4.57a1.15,1.15,0,0,1,.29-.77,1.14,1.14,0,0,1,1.61-.09,1.13,1.13,0,0,1-.7,2,1.15,1.15,0,0,1-.81-.27L16.11,7a1.14,1.14,0,0,1-2.22.44l-3-1a1.14,1.14,0,0,1-.8.33H10L7.17,9.94a.71.71,0,0,1,0,.2,1.14,1.14,0,0,1-1.13,1.14,1.06,1.06,0,0,1-.5-.13L2,14.39v4l3-3.24a1.36,1.36,0,0,1,0-.2,1.14,1.14,0,1,1,2.27,0,.86.86,0,0,1,0,.16l2.38,1.8a1.16,1.16,0,0,1,.93-.5,1.2,1.2,0,0,1,.69.24L14,13.61a1.2,1.2,0,0,1-.13-.5,1.14,1.14,0,0,1,2.28,0v.18l2.82,2.52a1.23,1.23,0,0,1,.5-.12,1.14,1.14,0,1,1-1.14,1.14,1.12,1.12,0,0,1,.09-.44L15.69,14a1.12,1.12,0,0,1-.72.26,1.2,1.2,0,0,1-.45-.09l-2.89,3.21a.71.71,0,0,1,0,.2,1.14,1.14,0,0,1-2.25.22l-2.6-2a1.12,1.12,0,0,1-1.43,0L2,19.58v1.31H22.8ZM1.25,2.36V21.29a.35.35,0,0,0,.35.35H22.75v-.7H2V19.57H2l3.41-3.75h0a1.08,1.08,0,0,0,1.4,0l0,0,2.65,2h0a1.07,1.07,0,0,0,.47.68,1.1,1.1,0,0,0,.83.15,1.09,1.09,0,0,0,.86-1,.75.75,0,0,0,0-.2h0l2.92-3.25h0a1.34,1.34,0,0,0,.44.1,1.11,1.11,0,0,0,.7-.27h0l2.74,2.43v0a1.12,1.12,0,0,0-.09.44,1.09,1.09,0,1,0,1.09-1.09,1.11,1.11,0,0,0-.5.12h0l-2.86-2.56h0a.54.54,0,0,0,0-.18,1.09,1.09,0,1,0-2.18,0,1.11,1.11,0,0,0,.12.5h0l-2.79,3.1h0a1.1,1.1,0,0,0-.68-.24,1.08,1.08,0,0,0-.91.5v0L7.15,15.15h0V15A1.09,1.09,0,0,0,5,15a.65.65,0,0,0,0,.2H5L2,18.53V14.37H2l3.6-3.26h0a1.05,1.05,0,0,0,.49.13,1.09,1.09,0,0,0,1.09-1.09,1.36,1.36,0,0,0,0-.2h0L9.94,6.78h.2a1.09,1.09,0,0,0,.78-.33h0l3,1h0a1.1,1.1,0,0,0,1.36.74A1.08,1.08,0,0,0,16.06,7V7l2.63-1.64h0a1.14,1.14,0,0,0,.79.28,1.08,1.08,0,0,0,.75-.37,1,1,0,0,0,.28-.78,1.16,1.16,0,0,0-.36-.76,1.09,1.09,0,0,0-.79-.27,1,1,0,0,0-.75.36,1,1,0,0,0-.28.74.43.43,0,0,0,0,.16h0L15.71,6.38h0a1,1,0,0,0-.79-.28,1,1,0,0,0-.75.35A1.1,1.1,0,0,0,14,6.7v0L11.23,5.8v0a.14.14,0,0,0,0-.09,1.08,1.08,0,0,0-1.08-1.1h0A1.09,1.09,0,0,0,9.05,5.67a1.12,1.12,0,0,0,.26.72h0l0,0L6.75,9.31l0,0a1.1,1.1,0,0,0-.67-.24A1.09,1.09,0,0,0,5,10.14a1.17,1.17,0,0,0,.09.45h0L2,13.44V2.36ZM10.51,18a.4.4,0,0,1-.39-.4.4.4,0,0,1,.79,0A.4.4,0,0,1,10.51,18Zm0-.75a.35.35,0,1,0,.35.35A.35.35,0,0,0,10.51,17.22Zm8.92,0a.39.39,0,0,1-.4-.39.4.4,0,0,1,.4-.4.39.39,0,0,1,.39.4A.38.38,0,0,1,19.43,17.22Zm0-.74a.35.35,0,1,0,.35.35A.35.35,0,0,0,19.43,16.48ZM6.06,15.37a.4.4,0,0,1-.4-.4.4.4,0,0,1,.79,0A.4.4,0,0,1,6.06,15.37Zm0-.75A.35.35,0,1,0,6.4,15,.35.35,0,0,0,6.06,14.62ZM15,13.51a.4.4,0,0,1,0-.79.4.4,0,1,1,0,.79Zm0-.74a.35.35,0,1,0,.35.34A.35.35,0,0,0,15,12.77ZM6.06,10.54a.4.4,0,1,1,0-.79.4.4,0,0,1,0,.79Zm0-.75a.35.35,0,1,0,.34.35A.35.35,0,0,0,6.06,9.79ZM15,7.57a.39.39,0,0,1-.39-.4A.38.38,0,0,1,15,6.78a.39.39,0,0,1,.4.39A.4.4,0,0,1,15,7.57Zm0-.75a.35.35,0,1,0,.35.35A.35.35,0,0,0,15,6.82Zm-4.83-.74a.4.4,0,1,1,.4-.4A.4.4,0,0,1,10.14,6.08Zm0-.74a.35.35,0,1,0,.35.34A.35.35,0,0,0,10.14,5.34ZM19.43,5a.4.4,0,0,1-.4-.4.39.39,0,0,1,.4-.39.38.38,0,0,1,.39.39A.39.39,0,0,1,19.43,5Zm0-.75a.35.35,0,1,0,.35.35A.35.35,0,0,0,19.43,4.22Z"/><rect class="cls-2" width="24" height="24"/></g></g></svg>